<?xml version="1.0" encoding="UTF-8"?>
<svg id="Calque_1" data-name="Calque 1" xmlns="http://www.w3.org/2000/svg" viewBox="0 0 1523.39 335.63">
  <defs>
    <style>
      .cls-1 {
        fill: currentColor;
      }
    </style>
  </defs>
  <path class="cls-1" d="M272.49,274.3c3.78,6.85,1.38,14.75-.87,21.74-2.6,8.63-2.37,19.07-8.59,26.05-7.1,5.39-17.12,3.87-25.65,4.94-8.73,1.5-17.52.68-26.34-.21-8.41-.76-16.89-.7-25.3-.62-6.16.88-12.96.41-18.79.63-11.32,1.55-23.02-1.06-34.33-1.48-5.62-.07-11.35,2.58-16.95,2.66-3.86.22-7.59-.97-11.15-1.2-3.66-.23-7.01.98-10.81.78-3.57-.11-7.05-1.32-10.62-1.37-5.54.23-11.14.46-16.63.03-4.57.4-9.21.11-13.72-.1-3.22.17-6.17,1.42-9.21,1.27-3.09-.18-6.65-1.26-9.99-1.19-5.71-.26-10.58-.53-15.82.42-4.13.57-8.05-1.27-12.02-2.16-8.08-1.33-5.95-6.49-3.3-12.15,2.05-4.62,3.27-9.46,5.51-14.01,2.95-5.7,4.93-11.69,6.66-17.68.67-3.8-1.26-7.84-.45-11.75,1.57-6.61.05-13.31-.36-20.11-.74-5.58.44-10.71,1.12-15.98.66-6.15-.77-12.53-1.63-18.5.92-10.88.43-21.47-.46-32.28.62-8.38.97-16.85.46-25.09.09-3.99,1.03-8.08.95-12.11-.3-5.11-1.37-10.29-1.62-15.34-.31-4.98,1.99-9.6,2.02-14.49-.12-3.49-.68-6.99-1.03-10.51-2.01-10.43.35-20.82.91-31.28-.49-6.07-1.88-12.11-2.09-18.19-.25-4.21.25-8.47-.41-12.69-.86-4.71-2.63-9.28-4.3-13.66C6.4,23.59-.54,17.32,1.65,12.29c1.69-2.32,5.46-2.11,8.14-2.4,4.57-.55,9.29-1.99,14.03-1.47,5,.48,9.89-.53,14.92.14,5.66.88,10.63-1.62,16.38-1.32,3.03.04,6.29.04,9.37-.09,5.5-.59,11.12.96,16.29,1.36,3.66.05,7.36-1.5,11.34-1.28,6.46.14,10.66,4.79,8.3,11.08-2.6,7.68-8.82,13.99-11.9,21.59-1.77,4.44-.95,9.01-.91,13.8-.12,3.91-.81,7.62-1.57,11.4-1.38,8.03.66,16,.77,24.07.02,2.89-.73,5.67-1.2,8.48-.64,3.1.5,6.11.86,9.39.32,3.09-.04,6.5.13,9.58.73,5.34-1.25,9.74-1.92,15.27-.02,6.29.06,12.72-.48,18.89.3,6.35,1.13,12.54.94,19.01.2,12.49,0,24.56.45,36.88,1.59,6.48.7,13.38,1.18,19.67.75,4.16-.6,8.27-1.48,12.28-.02,11.39.24,23.19-.25,34.37.14,4.25.28,9.79,4.04,12.22,2.69,1.65,6.77.38,10.13,1.32,2.13.48,4.15,1.5,6.35,1.56,3.15.07,6.47-1.44,10.37-1.56,5.46-.02,10.91.3,16.17.34,4.03.34,8.05,1.26,12.02.95,4.16-.45,8.32-.54,12.48.03,6.47.87,12.77-.25,19.2-.33,3.48.07,7,.66,10.38.66,13.98-.51,28.56-1.93,42.56-.76,9.64.81,17.05-.83,23.19-8.86,2.43-3.22,4.36-6.74,7.97-7.64,4.61-1.03,10.26-1.17,12.45,3.15l.11.21Z"/>
  <path class="cls-1" d="M674.85,302.71c-3.05-3.38-6.89-7.58-9.59-11.6-1.87-3.83-4.6-7.17-6.38-10.89-1.2-2.36-1.77-4.97-2.86-7.46-1.89-3.81-4.21-7.38-5.41-11.49-1.86-5.41-3.72-11.33-6.53-16.56-2.96-4.89-3.99-10.18-6.23-15.27-2.2-4.22-5.53-7.76-6.69-12.35-2.05-8.37-5.53-16.35-9.29-24.08-3.57-5.22-5.92-11.42-8.66-16.93-1.53-2.75-3.35-5.35-4.71-8.2-2.43-5.84-4.59-12.02-8.36-17.37-1.86-3.05-2.96-6.4-3.97-9.8-1.99-6.63-6.12-13.15-9.01-19.32-1.18-2.81-1.23-5.99-2.52-8.61-1.01-2.15-2.67-4.04-4.25-5.83-2.16-2.34-3.39-5.25-4.83-8.03-2.28-4.38-3.62-9.28-5.51-13.87-2-4.64-5.02-8.69-5.99-13.66-.73-4.72-4.03-8.38-5.48-12.82-.61-2.03-1.04-4.16-2-6.05-1.2-2.33-3.28-4.51-4.07-7.23-1.77-6.34-.81-13.41-1.01-20.24-.61-15.62-9.67-17.82-23.61-16.83-4.28.2-8.73-.52-12.75-.13-2.46.28-4.9.36-7.36-.07-4.45-.91-8.9-1.61-13.42-.96-7.62.51-16.73,1-24.31,1.94-4.31.57-8.42-1.62-12.52-1.78-3.48.05-7.7,1.98-9.15,5.35-1.24,2.83.44,6.4,1.91,9.62,6.74,14.05,3.52,19.76-2.62,32.78-2.39,4.99-3.39,10.36-5.39,15.43-2.17,4.67-4.81,9.46-6.61,14.27-2.6,5.63-5.07,10.88-7.45,16.65-2.82,5.89-4.97,11.81-8.33,17.38-2.09,3.3-3.84,6.77-5.27,10.39-3.48,7.41-7.97,14.36-10.65,22.28-1.29,3.94-3.5,7.25-5.77,10.64-2.53,4.36-3.96,9.48-6.18,14.05-1.19,3.11-1,6.62-2.38,9.43-.79,1.72-2.06,3.19-3.09,4.77-2.44,4.48-3.53,9.04-7.07,12.98-2.95,4.23-3.04,9.81-5.79,14.36-1.64,2.87-3.49,5.48-4.54,8.71-1.19,4.55-3.43,8.17-5.62,12.18-1.55,4.38-3.05,9.13-5.26,13.4-1.64,5.16-3.69,10-6.42,14.72-2.68,6.22-5.51,12.3-7.88,18.76-1.02,2.58-2.58,4.68-4.3,6.79-2.18,2.76-3.75,6.06-6.58,7.87-1.49,1-3.35,1.53-5.03,2.16-5.24,1.92-8.67,6.71-11.65,11.4-2.68,4.2-3.43,9.2,2.81,10.92,5.19,1.7,10.84.81,16.2,1.28,4.2.35,8.03,2.01,11.74,1.14,1.51-.3,2.98-.77,4.5-1.03,2.63-.51,5.38-.17,8.01.37,6.2,1.4,11.9.9,18.12.17,7.63-.78,22.66-.68,21.35-11.81-1.23-5.85-3.25-11.59-3.51-17.67-.66-7.18,1.71-12.83,4.21-19.14.92-2.61,1.37-5.4,2.12-8.07,1.51-4.9,4.91-8.62,6.5-13.22,3.25-10.95,13.55-21.67,25.7-20.7,2.48.19,5,.67,7.52.66,5.62,0,10.45-1.84,15.88-1.36,6.32.39,12.77.39,19.02-.15,5.87-.81,11.51.89,17.15,2.21,5.06.72,10.41.43,15.41-.53,3.71-.99,7.35-1.94,11.25-1.7,7.18.53,14.47,1.05,21.59.62,10.94-1.39,17.5,4.59,24.04,12.49,4.45,4.95,5.43,11.17,8.01,17.27,2.26,4.38,2.75,9.28,3.8,14.02,1,4.45,3.71,8.31,5.05,12.76,1.68,4.4,1.25,9.11-.45,13.44-1.01,2.72-2.14,5.64-2.06,8.5.12,7.52,8.86,10.97,14.79,13.1,3.19.74,6.44-.17,9.68-.61,6.59-.48,13.08-1.51,20.03-.76,6.42,1.48,12.34.84,18.99.82,6.19.64,12.64.36,18.71.34,5.14.45,10.75,1.18,15.85-.78,5.15-1.49,8.69-4.6,7.36-9.93-.76-3.88-2.56-7.71-5.45-10.09-1.61-1.4-3.73-2.03-5.35-3.34l-.14-.12ZM434.24,198.83c-.46-.69-.1-1.9.5-3.69,1.33-3.92,3-8.84,4.46-13.16,2.42-5.32,2.19-11.54,5.52-16.36,3.25-5.52,4.09-11.94,7.64-17.43,1.47-2.83,3.1-5.48,4.62-8.3,2.14-4.05,3.66-8.52,5.92-12.44,1.71-2.99,3.35-5.88,4.36-9.25.97-2.95,1.42-6.11,2.7-8.93,1.45-3.13,3.78-5.83,5.32-8.95,1.93-4.09,3.54-8.53,5.45-12.53,1.29-2.74,2.68-5.96,3.7-8.87,1.29-3.06,2.59-9.67,6.82-8.44,2.87,1.24,4.27,5.45,5.44,8.32,1.74,4.5,4.51,8.41,6.5,12.73,2.31,5.36,5.18,10.81,6.91,16.55.89,3.22,1.16,6.37,2.52,9.34,1.19,2.58,3.04,5.01,4.41,7.95,4.3,11.61,9.5,22.9,14.78,34.13,1.72,3.87,3.92,7.69,5.38,11.72,1.4,3.92,1.95,7.78,3,11.6.92,4.78,6.21,9.45,4.01,14.37-1.17,2.19-3.8,3.96-6.22,4.21-3.48.43-6.49-1.62-10.02-1.92-4.37-.34-8.94-.13-13.33-.3-6.15-.13-12.5,1.01-18.69,1.64-3.7.35-7.21-.08-10.92.27-6.35.2-12.63-.15-18.82.2-3.45-.22-7.02-1.48-10.51-1.5-6.4.3-13.48.92-20.01-.13-.6-.21-.92-.19-1.37-.73l-.07-.1Z"/>
  <path class="cls-1" d="M901.19.01c-4.04-.15-7.99,1.08-12.4.64-4.89-.66-9.84-.84-14.44,1.22-4.69,1.88-9.76,1.03-14.82,1.83-2.41.45-4.68,1.42-7.02,2.11-4.02,1.25-8.2,1.57-11.69,3.74-3.94,2.61-8.58.98-12.92,2.69-5.08,2.5-10.36,4.91-15.1,8.05-4.44,2.73-9.41,4.05-13.42,7.36-3.36,2.44-7.93,3.83-11.19,6.62-4.53,4.36-9.9,7.71-14.62,11.9-6.1,6.26-14.02,10.62-19.71,17.27-5.64,7.23-11.82,14.41-15.55,22.82-5.98,10.05-12.13,20.31-15.4,31.69-1.75,4.14-2.44,8.66-3.53,12.82-.91,2.96-2.56,5.6-3.08,8.66-.75,6.44-2.06,13.2-1.89,19.79-.2,4.08-2.09,8.6-1.75,12.92.34,4.16,2.78,7.37,2.88,10.97.16,3.55-1.14,7.13-.65,10.71.33,3.5,2.21,6.42,3.43,9.57.85,2.32,1.26,4.8,2.09,7.13,2,5.24,5.59,9.41,6.75,14.86,1.17,6.06,4.98,11.22,6.91,17.02,1.76,7.3,7.04,12.25,11.44,18.23,3.7,5.17,9.14,8.9,12.29,14.22,2.35,3.75,4.36,8.15,8.36,10.41,2,1.16,4.17,2.02,6.14,3.24,3.04,1.77,5.27,4.9,8.43,6.84,3.15,2,6.44,3.82,9.23,6.31,3.49,2.98,7.06,6.14,11.48,7.99,3.6,1.41,7.21,2.73,10.28,5.12,4.29,3.58,10.04,3.48,15.17,5.37,5.98,2.56,11.16,6.01,17.61,6.97,4.91,1,9.36,3.2,14.43,3.35,1.99.11,3.96.09,5.96.24,6.82.26,13.27,4.17,19.75,4.9,3.67.27,7.51-.47,11.27-.54,4.88-.32,10.27-.89,15.32-.59,9.53-.24,18.87-.99,28.04-3.3,5.98-1.31,12.13-1.18,18.06-2.93,6.86-1.81,13.67-2.63,20.01-5.88,5.4-2.12,10.51-4.65,15.71-7.43,5.73-2.73,11.48-4.72,16.51-8.89,3.58-2.5,6.72-5.57,9.97-8.36,3.37-2.52,7.89-2.97,10.79-6.11,3.97-4.27,7.94-8.81,11.92-13.12,3.69-3.68,7.84-6.84,10.83-11.21,3.67-5.63,8.41-10.06,12.45-15.4,5.91-10.73,10.22-20.99,15.23-32.3,3.62-6.32,5.16-13.43,5.75-20.55.98-5.29,2.33-10.82,3.08-16.41.84-4.13,2.08-8.21,2.02-12.35.19-8.42-2.7-16.29-2.78-24.66-.63-6.23.38-13.09-2.01-19.07-1.34-3.34-3.3-6.35-5.12-9.68-2.15-3.68-2.5-8.08-4.17-11.94-1.52-3.41-4.51-5.76-5.67-9.15-1.07-3.16-2.05-6.37-4.14-9.05-4.11-4.99-6.78-10.76-10.81-15.86-2.13-2.66-4.87-4.8-7.12-7.33-2.62-2.81-4.08-6.49-6.85-9.18-9.7-8.44-20.4-15.3-30.9-22.99-4.98-3.38-9.99-5.55-14.96-8.62-3.29-2.21-6.48-5.15-10.07-6.89-8.12-2.9-15.81-6.31-24.18-8.41-5.47-1.53-10.89-3.64-16.64-4.64-10.38-2.64-20.85-1.47-31.37-1.53-4.95-.11-8.99-.98-13.35-1.22h-.25ZM963.79,290.37c-2.35,1.4-4.58,3.08-7.16,4.11-4.29,1.89-9.54,1.3-13.84,2.73-3.39,1.16-6.62,2.97-10.32,2.87-3.55-.03-7.57-1.01-11.16-.74-1.84.07-3.75.25-5.57.12-3.32-.18-6.55-1.67-9.82-1.45-1.87.07-3.84.4-5.65-.15-3.53-1.37-6.57-4.68-10.64-5.47-2.67-.7-5.21-1.53-7.76-2.44-4.65-1.36-9.5-2.01-13.32-5.25-2.93-2.21-7.05-3.16-9.37-5.74-1.63-1.7-2.93-3.75-4.88-5.11-2.65-1.86-6.07-2.72-8.69-4.79-3.36-2.36-6.03-6.22-9.25-8.89-4.84-3.35-7.06-8.77-10.9-13-3.62-3.78-6.27-8.86-9.12-13.44-2.79-4.75-5.86-9.33-8.39-14.06-2.61-5.55-6.02-10.83-8.93-16.24-2.1-3.9-3.07-8.21-4.92-12.39-3.77-9.05-3.53-19.94-5.61-29.6-.92-4.44,1.8-8.75.65-13.1-.39-1.73-1.05-3.42-1.25-5.2-.39-3.22,1.06-6.47,1.36-9.71.61-6.36.72-13.14,2.7-19.37,2.09-8.89,4.04-17.65,6.55-26.36,2-6.58,7.84-11.64,11.04-17.41,2.08-3.75,5.94-5.82,8.93-8.75,3.89-4.11,6.68-8.75,11.57-11.59,3.93-2.32,6.66-6.03,10.87-8.16,6.14-2.97,13.44-2.75,19.51-5.78,1.88-.92,3.63-2.11,5.6-2.83,4.85-1.34,10.94-1.4,16.16-2.57,5.93-.91,11.44,1.6,17.24,2.2,3.01.44,6.13.29,9.12.73,3.39.42,6.24,2.44,9.44,3.56,3.75,1.27,8.16,1.02,12.11,2.69,3.58,1.43,6.58,4.04,9.8,6.09,4.6,2.64,9.53,5.27,13.72,8.45,4.93,3.89,11.29,5.85,15.25,10.94,4.91,6.17,8.55,12.42,14.9,17.78,2.74,2.65,5.53,5.18,7.93,8.1,2.63,3.53,3.48,8.08,6.13,11.32,2.04,2.38,3.66,5.02,4.77,7.96,1.89,4.99,5.22,8.94,6.9,14.05,3.79,11.72,5.73,23.89,9.44,35.55,1.39,4.85,2.31,10,2.78,15.05.16,4.61-1.38,8.85-.37,13.26.34,1.99.71,3.97.77,6,.07,5.81-2.67,12.06-1.99,18.14,0,3.5-1.43,6.69-2.59,9.93-1.61,4.23-2.61,8.87-3.96,13.3-1.52,4.83-4.29,9.22-6.58,13.64-2.95,6.01-5.94,11.84-9.94,17.24-2.78,3.59-7.67,4.18-10.6,7.47-5.86,6.93-14.66,12.07-22.43,16.19l-.22.13Z"/>
  <path class="cls-1" d="M1251.2,9.35c.5-1.27.5-1.07.07-.83"/>
  <path class="cls-1" d="M1521.16,310.21c9.78,17.28-15.14,17.15-26.1,16.28-16.06,1.18-33.12,3.42-48.48-2.66-15.96-8.45,3.27-20.85,5.79-31.07,1.31-21.26.94-42.76,0-64.14.9-7.65.54-15.34-.71-22.76.71-7.2,2.24-14.24,1.52-21.63,0-13.58-2.46-27.01.21-40.53-.16-11.77.26-23.22.17-35.08-2.69-9.88-.62-18.24.21-28.16-.17-12.81-6.14-4.17-7.26,2.58-2.9,7.56-7.8,14.42-8.54,22.88-3.67,7.08-6.07,14.16-8.25,21.78-3.88,8.35-8.89,16.67-11.66,25.5-1.09,8.12-6.22,14.07-8.69,21.55-5.14,18.56-13.3,35.68-21.23,53.2-4.77,12.28-7.8,25.75-14.23,37.55-3.53,11.28-9.91,21.19-13.35,32.47-6.11,9.58-6.76,25.78-19.98,27.86-11.03,1.4-25.41,1.46-28.07-12.18-4.5-13.23-10.79-25.59-16.7-38.19-3.27-7.98-5.61-16.99-10.64-24.39-7.56-18.63-16.18-37.29-24.78-55.59-5.38-16.51-14.35-31.69-20.24-48.02-1.93-4.69-5.65-8.38-7.26-13.27-1.12-3.21-1.04-7.11-2.4-9.96-5.67-7.04-7.76-15.59-10.76-23.96-1.33-3.95-2.72-8.99-6.1-11.45-2.82,18.07-1.25,38.98-1.6,57.57-2.49,8.27,1.49,16.29-.11,24.67-.84,9.69-1.44,19.6,1.01,28.96,1.36,5.21-.94,10.33-1.25,15.46,1.86,18.56-.06,37.84-.75,56.36.07,3.8,1.22,7.46,1.68,11.22.65,4.27-.45,8.57.79,12.71,1.56,7.72,13.46,13.69,10.46,22.12-7.2,9.97-20.21,10.95-31.47,9.43-11.19.3-40.32,3.82-41.03-11.76,2.31-13.37,15.74-10.62,14.41-28.77,1.57-10.18-1.42-20.97-1-31.33.25-4,2.56-7.57,2.62-11.63-1.2-9.15-2.59-18.2-2.85-27.32,2.62-34.16,1.88-67.76,3.08-101.68-.04-5.28-1.19-10.61-1.65-15.86-.27-4.48,1.81-9.07,1.35-13.68-2.48-12.67-1.11-24.89-1.03-37.75.15-9.36-3.05-17.96-8.97-25.37-7.34-10.26,5.56-15.75,14.56-14.52,18.8-1.67,37.64.1,56.46.82,21.45-1.42,21.41,30.65,31.98,43.62,1.92,4.94,5.18,9.02,7.86,13.48,2.03,4.86,3.15,10,5.76,14.69,4.58,9.85,9.92,19.53,12.85,30.01.56,8.76,8.4,14.37,8.94,23.08.74,3.66,3.67,6.25,5.35,9.48,3.18,5.68,2.82,13.17,5.96,18.87,4.24,5.59,5.97,12.21,8.13,18.82,6.62,10.48,10.16,23.14,15.93,34,9.26,25.31,12.51,5.24,17.1-8.3,2.02-5.65,5.6-10.6,7.83-16.15,1.91-7.74,3.99-15.04,7.95-22.03,5.83-12.47,13.08-23.94,15.94-37.48,4.41-9.39,3.92-21.22,11.36-29.13,4.99-4.78,4.01-12.55,6.85-18.13,1.74-2.92,3.01-6.05,3.95-9.31,8.87-15.3,10.24-33.9,20.91-48.5,4.06-26.4,31.35-17.18,50.03-17.33,10.23-.49,41.35-3.92,44.21,7.96.36,5.72-6.39,8.07-8.3,13.17-3.77,9.66-3.18,19.55-2.85,29.7-2.05,7.74-.74,15.87-.49,23.82,0,10.31-.11,20.69.41,31,1.34,6.41-1.19,12.32-.34,18.64,1.66,9.13-.85,18.65-1.59,27.68-.04,5.7,1.78,11.26,1.53,16.99-.41,8.54-2.78,16.38-1.69,24.86,1,9.63-1.5,19.06,1.88,28.51.05,6.8.35,14.63,0,21.64-1.68,6-1.68,12.02-.55,18.1.45,6.98.57,14.69.25,21.83-.58,6.38,4.39,9.76,9.83,12.75,2.33,1.43,4.28,3.06,5.72,5.26l.11.17Z"/>
</svg>