<svg xmlns="http://www.w3.org/2000/svg" viewBox="0 0 130 200" fill="none"><path d="M64,196 C38,150 94,74 70,8" stroke="currentColor" stroke-width="2.6" stroke-linecap="round"/><circle cx="70.0" cy="8.0" r="3" fill="currentColor"/><path d="M57.2,171.8 Q74.5,167.6 78.0,150.2 Q60.6,154.3 57.2,171.8 Z" fill="currentColor" fill-opacity="0.9"/><path d="M57.9,151.2 Q55.4,134.5 39.2,129.8 Q41.7,146.5 57.9,151.2 Z" fill="currentColor" fill-opacity="0.9"/><path d="M61.8,129.0 Q77.7,129.7 85.0,115.6 Q69.1,114.9 61.8,129.0 Z" fill="currentColor" fill-opacity="0.9"/><path d="M67.2,105.5 Q66.6,90.6 52.8,84.9 Q53.4,99.8 67.2,105.5 Z" fill="currentColor" fill-opacity="0.9"/><path d="M72.4,81.3 Q86.4,81.6 92.5,69.0 Q78.5,68.7 72.4,81.3 Z" fill="currentColor" fill-opacity="0.9"/><path d="M75.7,56.7 Q73.2,43.9 60.5,40.8 Q63.0,53.6 75.7,56.7 Z" fill="currentColor" fill-opacity="0.9"/><path d="M75.5,32.1 Q87.1,28.9 89.1,17.0 Q77.4,20.2 75.5,32.1 Z" fill="currentColor" fill-opacity="0.9"/></svg>