<svg xmlns="http://www.w3.org/2000/svg" viewBox="0 0 100 100">
  <rect width="100" height="100" rx="22" fill="#9A3922"/>
  <g transform="translate(50 50) scale(0.064) translate(-582.93 -523.18)" fill="#F2EBDB">
    <path d="M520.09,400.41c5.66,10.26,2.06,22.09-1.31,32.57-3.89,12.92-3.55,28.57-12.87,39.03-10.63,8.08-25.65,5.8-38.43,7.4-13.09,2.25-26.25,1.02-39.46-.31-12.6-1.13-25.3-1.04-37.91-.93-9.23,1.32-19.42.61-28.15.95-16.96,2.33-34.49-1.59-51.44-2.21-8.42-.1-17,3.87-25.4,3.99-5.79.33-11.38-1.46-16.7-1.8-5.48-.34-10.5,1.47-16.19,1.16-5.35-.16-10.56-1.97-15.92-2.05-8.31.34-16.69.68-24.92.05-6.85.6-13.8.16-20.55-.16-4.82.25-9.24,2.13-13.8,1.9-4.63-.26-9.96-1.89-14.96-1.78-8.56-.39-15.84-.79-23.69.63-6.19.85-12.06-1.91-18.01-3.23-12.1-2-8.92-9.73-4.94-18.2,3.07-6.92,4.9-14.18,8.26-20.99,4.43-8.54,7.38-17.51,9.98-26.49,1-5.69-1.89-11.75-.68-17.6,2.35-9.9.08-19.94-.54-30.12-1.1-8.36.66-16.04,1.67-23.94.98-9.21-1.15-18.77-2.45-27.71,1.38-16.3.64-32.16-.7-48.36.93-12.55,1.45-25.25.69-37.59.13-5.98,1.54-12.1,1.42-18.14-.45-7.65-2.06-15.42-2.42-22.97-.47-7.46,2.98-14.38,3.02-21.7-.19-5.23-1.02-10.47-1.54-15.74-3.01-15.63.53-31.2,1.36-46.86-.74-9.1-2.82-18.14-3.14-27.25-.37-6.31.37-12.69-.61-19.01-1.29-7.05-3.94-13.9-6.45-20.47-1.87-7.64-12.26-17.03-8.97-24.57,2.54-3.48,8.18-3.16,12.2-3.59,6.85-.82,13.91-2.98,21.02-2.2,7.49.73,14.82-.8,22.36.22,8.48,1.32,15.93-2.42,24.53-1.98,4.54.07,9.42.05,14.04-.13,8.24-.88,16.66,1.45,24.4,2.04,5.48.07,11.02-2.24,16.99-1.91,9.68.22,15.96,7.18,12.44,16.6-3.89,11.51-13.22,20.96-17.83,32.35-2.65,6.65-1.43,13.5-1.37,20.67-.17,5.86-1.21,11.42-2.35,17.08-2.07,12.02.98,23.98,1.16,36.06.03,4.33-1.1,8.49-1.79,12.71-.96,4.64.75,9.16,1.29,14.07.47,4.62-.06,9.74.19,14.36,1.09,8-1.88,14.6-2.87,22.88-.03,9.42.09,19.06-.72,28.31.45,9.51,1.7,18.79,1.41,28.48.29,18.72,0,36.79.67,55.26,2.38,9.71,1.05,20.05,1.77,29.47,1.12,6.24-.89,12.4-2.22,18.4-.03,17.06.37,34.75-.37,51.48.21,6.37.42,14.67,6.06,18.31,4.04,2.47,10.15.56,15.17,1.98,3.19.72,6.22,2.25,9.51,2.33,4.72.11,9.69-2.16,15.54-2.34,8.18-.02,16.34.45,24.22.51,6.04.51,12.06,1.89,18.01,1.43,6.23-.68,12.46-.81,18.7.05,9.7,1.31,19.13-.38,28.77-.5,5.21.1,10.49.99,15.55.98,20.95-.77,42.79-2.89,63.77-1.14,14.44,1.21,25.54-1.25,34.74-13.27,3.65-4.83,6.52-10.09,11.94-11.45,6.9-1.54,15.37-1.76,18.66,4.71l.17.31Z"/>
    <path d="M1139.36,442.85c-4.55-5.04-10.29-11.32-14.32-17.32-2.79-5.72-6.86-10.71-9.52-16.26-1.79-3.53-2.64-7.43-4.27-11.13-2.82-5.69-6.29-11.02-8.08-17.15-2.78-8.08-5.56-16.92-9.75-24.72-4.42-7.3-5.96-15.2-9.3-22.8-3.28-6.3-8.26-11.59-9.99-18.44-3.06-12.5-8.26-24.41-13.88-35.95-5.33-7.79-8.84-17.05-12.94-25.27-2.28-4.11-5-7.99-7.03-12.24-3.64-8.72-6.85-17.94-12.47-25.94-2.77-4.55-4.42-9.55-5.93-14.62-2.97-9.9-9.13-19.63-13.45-28.85-1.76-4.19-1.84-8.94-3.77-12.86-1.51-3.21-3.98-6.04-6.35-8.7-3.22-3.5-5.06-7.84-7.21-11.99-3.41-6.53-5.4-13.85-8.23-20.71-2.98-6.93-7.5-12.97-8.94-20.39-1.09-7.04-6.01-12.51-8.17-19.14-.91-3.03-1.55-6.21-2.99-9.03-1.79-3.47-4.9-6.74-6.07-10.8-2.64-9.46-1.21-20.02-1.5-30.22-.91-23.33-14.44-26.61-35.25-25.12-6.38.29-13.03-.77-19.04-.2-3.67.41-7.31.54-10.99-.1-6.64-1.36-13.29-2.41-20.04-1.43-11.38.77-24.98,1.49-36.3,2.9-6.44.85-12.57-2.41-18.69-2.66-5.2.07-11.49,2.96-13.66,7.99-1.84,4.23.66,9.55,2.86,14.36,10.06,20.98,5.25,29.51-3.91,48.93-3.57,7.46-5.06,15.47-8.05,23.04-3.24,6.98-7.18,14.13-9.86,21.3-3.88,8.41-7.57,16.24-11.12,24.86-4.2,8.8-7.43,17.64-12.44,25.94-3.12,4.92-5.74,10.11-7.87,15.51-5.2,11.07-11.9,21.45-15.91,33.26-1.92,5.89-5.23,10.82-8.61,15.89-3.77,6.51-5.92,14.15-9.23,20.98-1.77,4.64-1.5,9.89-3.56,14.08-1.18,2.56-3.08,4.76-4.62,7.12-3.64,6.69-5.28,13.49-10.56,19.38-4.4,6.32-4.55,14.65-8.65,21.44-2.45,4.28-5.21,8.19-6.78,13-1.78,6.79-5.13,12.2-8.39,18.19-2.31,6.53-4.56,13.63-7.86,20.01-2.45,7.7-5.51,14.93-9.58,21.97-4,9.28-8.23,18.37-11.77,28.01-1.53,3.85-3.85,6.99-6.41,10.13-3.26,4.12-5.6,9.05-9.82,11.75-2.22,1.49-5,2.29-7.52,3.22-7.82,2.86-12.94,10.02-17.4,17.01-4,6.27-5.11,13.74,4.19,16.31,7.75,2.53,16.18,1.21,24.19,1.91,6.28.52,11.98,3.01,17.53,1.7,2.25-.45,4.45-1.14,6.72-1.54,3.92-.76,8.03-.26,11.96.55,9.26,2.09,17.77,1.35,27.06.25,11.39-1.17,33.82-1.01,31.87-17.64-1.83-8.73-4.85-17.3-5.24-26.38-.98-10.73,2.55-19.16,6.29-28.57,1.37-3.9,2.04-8.06,3.16-12.04,2.26-7.31,7.33-12.86,9.7-19.74,4.86-16.35,20.23-32.35,38.37-30.9,3.71.28,7.47,1,11.22.99,8.39-.01,15.61-2.74,23.71-2.03,9.44.59,19.07.59,28.4-.22,8.77-1.21,17.18,1.33,25.61,3.3,7.55,1.08,15.55.64,23.01-.79,5.54-1.47,10.98-2.9,16.8-2.54,10.72.8,21.61,1.56,32.23.93,16.33-2.08,26.13,6.86,35.9,18.64,6.64,7.39,8.1,16.68,11.96,25.79,3.38,6.54,4.11,13.85,5.68,20.93,1.49,6.65,5.54,12.41,7.54,19.05,2.51,6.58,1.87,13.6-.67,20.07-1.51,4.06-3.2,8.42-3.08,12.69.19,11.23,13.23,16.37,22.08,19.56,4.76,1.1,9.61-.25,14.45-.91,9.85-.72,19.52-2.26,29.91-1.13,9.58,2.21,18.42,1.26,28.35,1.22,9.24.95,18.87.54,27.93.51,7.68.67,16.04,1.76,23.67-1.17,7.69-2.22,12.97-6.86,10.98-14.83-1.13-5.79-3.83-11.51-8.14-15.07-2.4-2.09-5.57-3.03-7.98-4.99l-.21-.18ZM780.13,287.75c-.69-1.03-.15-2.84.75-5.51,1.99-5.86,4.48-13.2,6.66-19.65,3.61-7.94,3.27-17.23,8.24-24.43,4.85-8.24,6.11-17.82,11.4-26.02,2.2-4.22,4.63-8.18,6.9-12.39,3.19-6.05,5.46-12.72,8.84-18.58,2.55-4.46,5-8.77,6.51-13.8,1.44-4.4,2.11-9.12,4.03-13.34,2.16-4.67,5.64-8.71,7.95-13.36,2.88-6.1,5.29-12.73,8.13-18.7,1.93-4.1,4-8.89,5.52-13.25,1.92-4.57,3.86-14.44,10.18-12.61,4.28,1.85,6.37,8.14,8.12,12.42,2.6,6.72,6.73,12.56,9.71,19.01,3.45,8,7.73,16.14,10.32,24.71,1.32,4.8,1.73,9.51,3.77,13.95,1.78,3.85,4.53,7.48,6.58,11.87,6.42,17.33,14.19,34.19,22.07,50.96,2.56,5.77,5.86,11.47,8.03,17.5,2.09,5.86,2.92,11.61,4.49,17.33,1.37,7.14,9.27,14.11,5.98,21.45-1.74,3.27-5.68,5.92-9.29,6.28-5.2.65-9.69-2.41-14.96-2.86-6.53-.51-13.34-.2-19.9-.45-9.18-.2-18.67,1.51-27.9,2.44-5.52.53-10.77-.12-16.31.41-9.49.3-18.86-.23-28.11.3-5.16-.32-10.47-2.21-15.7-2.24-9.55.45-20.13,1.38-29.88-.2-.9-.32-1.37-.28-2.04-1.09l-.1-.15Z"/>
    <path d="M281.13,546c-6.02-.22-11.92,1.62-18.49.95-7.28-.98-14.68-1.25-21.52,1.82-6.99,2.81-14.55,1.54-22.1,2.73-3.59.68-6.98,2.11-10.47,3.15-5.99,1.86-12.23,2.34-17.42,5.57-5.87,3.9-12.79,1.46-19.26,4.02-7.57,3.72-15.45,7.32-22.51,12-6.62,4.07-14.02,6.04-20.01,10.97-5.01,3.63-11.82,5.71-16.68,9.88-6.75,6.5-14.76,11.5-21.8,17.74-9.1,9.33-20.91,15.83-29.39,25.75-8.41,10.79-17.61,21.48-23.18,34.02-8.92,14.99-18.08,30.28-22.95,47.24-2.61,6.17-3.64,12.91-5.26,19.12-1.36,4.41-3.82,8.34-4.59,12.91-1.12,9.6-3.07,19.69-2.82,29.51-.3,6.09-3.12,12.82-2.62,19.26.51,6.21,4.14,10.98,4.3,16.36.24,5.29-1.7,10.64-.97,15.96.48,5.22,3.3,9.57,5.11,14.26,1.26,3.45,1.88,7.15,3.11,10.63,2.98,7.8,8.34,14.03,10.06,22.15,1.74,9.03,7.43,16.73,10.3,25.38,2.62,10.88,10.5,18.27,17.06,27.18,5.51,7.71,13.63,13.27,18.32,21.2,3.5,5.59,6.5,12.16,12.46,15.51,2.98,1.73,6.21,3.01,9.15,4.82,4.53,2.63,7.86,7.31,12.57,10.2,4.69,2.99,9.59,5.69,13.76,9.41,5.2,4.44,10.53,9.16,17.12,11.91,5.36,2.1,10.75,4.06,15.32,7.63,6.4,5.34,14.97,5.19,22.61,8,8.91,3.81,16.63,8.97,26.25,10.39,7.32,1.5,13.95,4.77,21.51,4.99,2.96.17,5.9.14,8.88.36,10.17.39,19.78,6.21,29.45,7.3,5.47.4,11.2-.7,16.8-.8,7.27-.47,15.31-1.33,22.85-.88,14.2-.37,28.13-1.48,41.8-4.91,8.92-1.95,18.09-1.75,26.92-4.36,10.22-2.7,20.38-3.92,29.83-8.77,8.05-3.16,15.66-6.93,23.42-11.08,8.54-4.07,17.12-7.04,24.62-13.25,5.34-3.72,10.02-8.31,14.86-12.47,5.03-3.76,11.76-4.42,16.09-9.11,5.92-6.36,11.84-13.13,17.76-19.57,5.5-5.49,11.68-10.19,16.14-16.71,5.47-8.4,12.53-14.99,18.55-22.95,8.81-16,15.24-31.29,22.71-48.15,5.4-9.43,7.69-20.01,8.57-30.63,1.45-7.88,3.47-16.13,4.59-24.46,1.26-6.16,3.11-12.24,3.01-18.4.29-12.55-4.03-24.29-4.14-36.76-.94-9.29.57-19.52-2.99-28.43-2-4.97-4.92-9.47-7.63-14.43-3.2-5.49-3.72-12.05-6.21-17.8-2.27-5.08-6.72-8.59-8.45-13.63-1.59-4.71-3.06-9.49-6.18-13.5-6.13-7.45-10.11-16.04-16.11-23.64-3.17-3.96-7.27-7.16-10.62-10.92-3.9-4.19-6.09-9.67-10.21-13.68-14.46-12.59-30.41-22.81-46.07-34.27-7.42-5.04-14.89-8.27-22.3-12.85-4.91-3.29-9.66-7.67-15.01-10.27-12.1-4.33-23.58-9.41-36.05-12.54-8.15-2.28-16.23-5.42-24.81-6.92-15.48-3.94-31.09-2.19-46.76-2.29-7.37-.16-13.4-1.47-19.91-1.82h-.37ZM374.46,978.87c-3.5,2.09-6.83,4.58-10.67,6.12-6.4,2.82-14.22,1.94-20.63,4.08-5.06,1.73-9.87,4.43-15.39,4.27-5.29-.04-11.29-1.5-16.64-1.1-2.74.11-5.59.37-8.31.18-4.95-.27-9.76-2.48-14.64-2.16-2.79.1-5.72.59-8.42-.23-5.27-2.04-9.79-6.97-15.87-8.15-3.98-1.04-7.77-2.28-11.57-3.63-6.94-2.03-14.17-3-19.85-7.83-4.36-3.29-10.51-4.71-13.97-8.56-2.42-2.53-4.37-5.59-7.28-7.61-3.96-2.77-9.05-4.05-12.96-7.15-5.01-3.51-8.99-9.28-13.79-13.25-7.21-5-10.52-13.07-16.26-19.39-5.4-5.64-9.35-13.21-13.59-20.04-4.16-7.08-8.73-13.91-12.5-20.96-3.9-8.28-8.97-16.14-13.31-24.21-3.14-5.81-4.58-12.25-7.34-18.47-5.62-13.49-5.26-29.73-8.37-44.13-1.38-6.62,2.68-13.04.97-19.52-.58-2.58-1.56-5.1-1.87-7.75-.58-4.81,1.57-9.65,2.03-14.47.9-9.48,1.07-19.6,4.02-28.87,3.11-13.25,6.02-26.31,9.76-39.3,2.99-9.81,11.69-17.35,16.46-25.95,3.1-5.58,8.86-8.68,13.31-13.05,5.8-6.13,9.96-13.05,17.24-17.27,5.86-3.46,9.93-8.99,16.21-12.16,9.16-4.43,20.03-4.11,29.09-8.61,2.8-1.37,5.41-3.15,8.35-4.22,7.22-2,16.31-2.09,24.09-3.83,8.84-1.35,17.06,2.39,25.7,3.28,4.49.65,9.15.43,13.6,1.09,5.05.63,9.3,3.63,14.07,5.31,5.59,1.9,12.17,1.52,18.05,4,5.34,2.13,9.82,6.02,14.61,9.07,6.85,3.93,14.21,7.86,20.46,12.6,7.34,5.8,16.83,8.73,22.74,16.3,7.32,9.19,12.75,18.51,22.21,26.51,4.09,3.95,8.25,7.73,11.82,12.08,3.93,5.26,5.19,12.04,9.14,16.88,3.04,3.55,5.46,7.48,7.11,11.87,2.82,7.44,7.79,13.32,10.29,20.95,5.65,17.48,8.55,35.62,14.08,53,2.07,7.24,3.45,14.91,4.14,22.43.25,6.87-2.05,13.19-.56,19.77.51,2.97,1.05,5.92,1.14,8.94.1,8.66-3.98,17.97-2.96,27.04,0,5.22-2.14,9.97-3.87,14.8-2.39,6.3-3.9,13.23-5.9,19.83-2.26,7.19-6.39,13.74-9.81,20.33-4.41,8.96-8.85,17.65-14.81,25.69-4.15,5.36-11.43,6.23-15.81,11.14-8.73,10.33-21.86,17.99-33.44,24.13l-.32.19Z"/>
    <path d="M1162.55,1007.29c14.53,25.68-22.5,25.48-38.78,24.19-23.87,1.75-49.22,5.08-72.04-3.96-23.72-12.55,4.86-30.98,8.6-46.17,1.95-31.6,1.4-63.54.01-95.31,1.33-11.37.8-22.8-1.06-33.82,1.05-10.71,3.33-21.17,2.27-32.14,0-20.18-3.65-40.14.31-60.23-.24-17.48.38-34.5.25-52.13-4-14.68-.92-27.1.32-41.85-.26-19.04-9.12-6.19-10.78,3.83-4.3,11.24-11.59,21.43-12.69,34-5.46,10.52-9.01,21.04-12.25,32.37-5.77,12.41-13.2,24.76-17.33,37.9-1.62,12.06-9.24,20.91-12.91,32.03-7.63,27.58-19.77,53.02-31.55,79.05-7.08,18.24-11.59,38.27-21.15,55.79-5.24,16.75-14.72,31.48-19.83,48.25-9.08,14.23-10.04,38.3-29.69,41.4-16.39,2.08-37.76,2.17-41.71-18.09-6.69-19.66-16.04-38.03-24.82-56.75-4.86-11.86-8.33-25.24-15.82-36.25-11.23-27.68-24.05-55.42-36.82-82.6-7.99-24.53-21.33-47.09-30.07-71.36-2.86-6.97-8.4-12.44-10.78-19.71-1.66-4.77-1.55-10.56-3.57-14.8-8.43-10.46-11.54-23.16-15.99-35.6-1.98-5.87-4.04-13.36-9.07-17.01-4.19,26.84-1.86,57.91-2.38,85.54-3.7,12.28,2.21,24.21-.16,36.66-1.25,14.4-2.14,29.12,1.5,43.03,2.02,7.74-1.39,15.34-1.85,22.97,2.76,27.58-.09,56.22-1.11,83.75.1,5.65,1.82,11.09,2.5,16.67.96,6.35-.67,12.73,1.17,18.89,2.32,11.47,20,20.34,15.54,32.87-10.71,14.82-30.03,16.27-46.76,14.01-16.63.45-59.92,5.68-60.97-17.48,3.43-19.87,23.38-15.79,21.42-42.76,2.34-15.13-2.11-31.17-1.49-46.56.37-5.94,3.81-11.24,3.89-17.28-1.79-13.59-3.84-27.05-4.23-40.6,3.89-50.76,2.8-100.69,4.57-151.09-.06-7.85-1.77-15.76-2.45-23.57-.4-6.65,2.68-13.47,2-20.33-3.69-18.83-1.65-36.99-1.54-56.09.22-13.91-4.53-26.69-13.33-37.7-10.91-15.25,8.26-23.41,21.64-21.58,27.94-2.49,55.93.15,83.89,1.22,31.87-2.11,31.82,45.54,47.52,64.82,2.85,7.34,7.7,13.4,11.68,20.04,3.02,7.21,4.68,14.85,8.57,21.83,6.81,14.64,14.74,29.02,19.09,44.59.84,13.01,12.48,21.35,13.28,34.3,1.1,5.44,5.46,9.28,7.95,14.09,4.73,8.45,4.19,19.56,8.85,28.04,6.3,8.3,8.87,18.15,12.08,27.96,9.84,15.57,15.1,34.38,23.68,50.52,13.76,37.61,18.59,7.79,25.41-12.33,3-8.39,8.33-15.75,11.63-23.99,2.84-11.5,5.92-22.34,11.81-32.74,8.66-18.54,19.43-35.57,23.69-55.7,6.55-13.96,5.83-31.53,16.88-43.29,7.41-7.1,5.97-18.64,10.18-26.93,2.59-4.33,4.47-9,5.87-13.84,13.18-22.73,15.22-50.37,31.07-72.06,6.03-39.23,46.58-25.53,74.33-25.75,15.21-.73,61.44-5.82,65.69,11.83.53,8.5-9.5,11.99-12.33,19.58-5.61,14.36-4.73,29.05-4.24,44.13-3.04,11.51-1.1,23.58-.73,35.39,0,15.32-.17,30.75.61,46.06,1.99,9.53-1.77,18.3-.5,27.69,2.47,13.57-1.27,27.71-2.37,41.13-.06,8.46,2.65,16.74,2.27,25.24-.61,12.68-4.13,24.35-2.51,36.94,1.49,14.31-2.22,28.32,2.8,42.36.08,10.1.52,21.73.01,32.15-2.49,8.92-2.5,17.87-.82,26.9.66,10.37.84,21.83.36,32.44-.86,9.48,6.53,14.5,14.6,18.95,3.46,2.13,6.37,4.54,8.51,7.81l.16.25Z"/>
  </g>
</svg>
