<svg xmlns="http://www.w3.org/2000/svg" width="600" height="600" viewBox="0 0 600 600" opacity="0.13"><g fill="none" stroke="#9A3922" stroke-width="1.3" stroke-linecap="round"><path d="M0.0,0.0 L125.5,0.0"/><path d="M0.0,0.0 L0.0,66.0"/><path d="M0.0,66.0 Q55.4,55.0 107.8,76.1"/><path d="M0.0,66.0 L0.0,176.3"/><path d="M0.0,176.3 Q40.8,187.8 83.2,189.6"/><path d="M0.0,176.3 L0.0,272.9"/><path d="M0.0,272.9 Q45.2,287.0 90.8,274.4"/><path d="M0.0,272.9 L0.0,390.7"/><path d="M0.0,390.7 Q57.5,424.7 123.7,433.5"/><path d="M0.0,390.7 L0.0,467.7"/><path d="M0.0,467.7 Q46.0,492.1 97.7,498.9"/><path d="M0.0,467.7 L0.0,600.0"/><path d="M0.0,600.0 L71.8,600.0"/><path d="M125.5,0.0 L172.9,0.0"/><path d="M125.5,0.0 Q117.2,38.2 107.8,76.1"/><path d="M107.8,76.1 Q149.4,70.6 189.3,84.0"/><path d="M107.8,76.1 Q83.6,130.3 83.2,189.6"/><path d="M83.2,189.6 Q152.0,174.9 222.4,177.0"/><path d="M83.2,189.6 Q77.8,232.8 90.8,274.4"/><path d="M90.8,274.4 Q119.6,315.6 167.6,330.7"/><path d="M90.8,274.4 Q113.2,352.7 123.7,433.5"/><path d="M123.7,433.5 Q160.8,402.0 201.9,376.0"/><path d="M123.7,433.5 Q100.2,462.0 97.7,498.9"/><path d="M97.7,498.9 Q152.8,491.9 202.9,467.8"/><path d="M97.7,498.9 Q96.8,552.5 71.8,600.0"/><path d="M71.8,600.0 L201.9,600.0"/><path d="M172.9,0.0 L332.5,0.0"/><path d="M172.9,0.0 Q192.4,39.8 189.3,84.0"/><path d="M189.3,84.0 Q260.7,81.7 324.7,113.3"/><path d="M189.3,84.0 Q192.3,135.3 222.4,177.0"/><path d="M222.4,177.0 Q251.5,190.7 283.8,190.9"/><path d="M222.4,177.0 Q214.5,260.8 167.6,330.7"/><path d="M167.6,330.7 Q223.9,337.5 277.4,318.5"/><path d="M167.6,330.7 Q176.9,359.3 201.9,376.0"/><path d="M201.9,376.0 Q249.6,403.2 302.2,419.0"/><path d="M201.9,376.0 Q207.4,421.8 202.9,467.8"/><path d="M202.9,467.8 Q245.4,476.0 288.4,481.2"/><path d="M202.9,467.8 Q220.0,534.1 201.9,600.0"/><path d="M201.9,600.0 L321.2,600.0"/><path d="M332.5,0.0 L433.0,0.0"/><path d="M332.5,0.0 Q348.4,58.0 324.7,113.3"/><path d="M324.7,113.3 Q373.1,133.9 424.0,120.8"/><path d="M324.7,113.3 Q300.0,149.9 283.8,190.9"/><path d="M283.8,190.9 Q352.5,204.9 421.6,216.3"/><path d="M283.8,190.9 Q260.6,253.7 277.4,318.5"/><path d="M277.4,318.5 Q329.0,307.4 381.4,301.2"/><path d="M277.4,318.5 Q276.3,372.1 302.2,419.0"/><path d="M302.2,419.0 Q352.2,403.8 390.2,368.0"/><path d="M302.2,419.0 Q301.8,451.5 288.4,481.2"/><path d="M288.4,481.2 Q328.5,476.0 367.9,485.0"/><path d="M288.4,481.2 Q313.7,538.1 321.2,600.0"/><path d="M321.2,600.0 L383.6,600.0"/><path d="M433.0,0.0 L513.1,0.0"/><path d="M433.0,0.0 Q439.8,61.2 424.0,120.8"/><path d="M424.0,120.8 Q478.3,111.9 531.0,96.4"/><path d="M424.0,120.8 Q431.1,168.8 421.6,216.3"/><path d="M421.6,216.3 Q476.2,221.6 529.7,233.2"/><path d="M421.6,216.3 Q412.8,264.1 381.4,301.2"/><path d="M381.4,301.2 Q457.7,318.1 530.9,290.8"/><path d="M381.4,301.2 Q389.3,334.1 390.2,368.0"/><path d="M390.2,368.0 Q435.8,373.3 481.0,381.4"/><path d="M390.2,368.0 Q375.5,425.8 367.9,485.0"/><path d="M367.9,485.0 Q424.4,498.7 479.4,479.9"/><path d="M367.9,485.0 Q379.0,542.1 383.6,600.0"/><path d="M383.6,600.0 L508.4,600.0"/><path d="M513.1,0.0 L600.0,0.0"/><path d="M513.1,0.0 Q507.6,50.9 531.0,96.4"/><path d="M531.0,96.4 Q565.5,111.9 600.0,127.2"/><path d="M531.0,96.4 Q528.8,164.8 529.7,233.2"/><path d="M529.7,233.2 Q564.9,228.8 600.0,223.1"/><path d="M529.7,233.2 Q540.3,261.8 530.9,290.8"/><path d="M530.9,290.8 Q565.6,293.2 600.0,298.6"/><path d="M530.9,290.8 Q516.3,341.8 481.0,381.4"/><path d="M481.0,381.4 Q545.7,374.7 600.0,410.4"/><path d="M481.0,381.4 Q469.6,430.5 479.4,479.9"/><path d="M479.4,479.9 Q544.5,485.9 600.0,520.4"/><path d="M479.4,479.9 Q495.1,539.7 508.4,600.0"/><path d="M508.4,600.0 L600.0,600.0"/><path d="M600.0,0.0 L600.0,127.2"/><path d="M600.0,127.2 L600.0,223.1"/><path d="M600.0,223.1 L600.0,298.6"/><path d="M600.0,298.6 L600.0,410.4"/><path d="M600.0,410.4 L600.0,520.4"/><path d="M600.0,520.4 L600.0,600.0"/></g></svg>