<svg xmlns="http://www.w3.org/2000/svg" width="600" height="600" viewBox="0 0 600 600" opacity="0.1"><g fill="none" stroke="#412F1F" stroke-width="1.3" stroke-linecap="round"><path d="M0.0,0.0 L119.3,0.0"/><path d="M0.0,0.0 L0.0,115.3"/><path d="M0.0,115.3 Q35.0,99.3 73.2,104.1"/><path d="M0.0,115.3 L0.0,203.8"/><path d="M0.0,203.8 Q39.8,187.3 82.9,184.8"/><path d="M0.0,203.8 L0.0,288.2"/><path d="M0.0,288.2 Q61.3,274.7 118.5,300.5"/><path d="M0.0,288.2 L0.0,401.2"/><path d="M0.0,401.2 Q50.4,419.9 104.2,417.7"/><path d="M0.0,401.2 L0.0,503.8"/><path d="M0.0,503.8 Q63.4,489.4 128.0,496.1"/><path d="M0.0,503.8 L0.0,600.0"/><path d="M0.0,600.0 L107.7,600.0"/><path d="M119.3,0.0 L200.4,0.0"/><path d="M119.3,0.0 Q110.2,58.2 73.2,104.1"/><path d="M73.2,104.1 Q137.3,105.0 200.8,113.1"/><path d="M73.2,104.1 Q66.1,145.9 82.9,184.8"/><path d="M82.9,184.8 Q137.8,206.6 196.8,202.3"/><path d="M82.9,184.8 Q110.8,239.6 118.5,300.5"/><path d="M118.5,300.5 Q162.2,305.2 198.5,330.0"/><path d="M118.5,300.5 Q93.7,356.9 104.2,417.7"/><path d="M104.2,417.7 Q158.7,424.4 213.5,425.6"/><path d="M104.2,417.7 Q110.5,458.6 128.0,496.1"/><path d="M128.0,496.1 Q177.2,474.8 230.1,483.7"/><path d="M128.0,496.1 Q134.4,551.3 107.7,600.0"/><path d="M107.7,600.0 L204.0,600.0"/><path d="M200.4,0.0 L330.1,0.0"/><path d="M200.4,0.0 Q192.9,56.6 200.8,113.1"/><path d="M200.8,113.1 Q261.0,90.9 323.1,75.3"/><path d="M200.8,113.1 Q212.5,158.3 196.8,202.3"/><path d="M196.8,202.3 Q236.5,211.4 274.3,196.1"/><path d="M196.8,202.3 Q191.4,266.2 198.5,330.0"/><path d="M198.5,330.0 Q239.9,314.1 270.9,282.4"/><path d="M198.5,330.0 Q220.3,375.6 213.5,425.6"/><path d="M213.5,425.6 Q244.1,425.9 271.0,411.5"/><path d="M213.5,425.6 Q230.9,452.1 230.1,483.7"/><path d="M230.1,483.7 Q269.0,517.0 319.3,527.0"/><path d="M230.1,483.7 Q219.0,542.3 204.0,600.0"/><path d="M204.0,600.0 L276.5,600.0"/><path d="M330.1,0.0 L414.7,0.0"/><path d="M330.1,0.0 Q331.0,38.1 323.1,75.3"/><path d="M323.1,75.3 Q367.0,77.2 410.9,75.7"/><path d="M323.1,75.3 Q280.1,128.2 274.3,196.1"/><path d="M274.3,196.1 Q353.1,201.2 426.0,231.8"/><path d="M274.3,196.1 Q284.1,239.7 270.9,282.4"/><path d="M270.9,282.4 Q325.5,307.6 380.9,330.8"/><path d="M270.9,282.4 Q283.1,346.9 271.0,411.5"/><path d="M271.0,411.5 Q330.3,388.2 393.1,399.1"/><path d="M271.0,411.5 Q309.2,463.4 319.3,527.0"/><path d="M319.3,527.0 Q375.6,506.3 433.3,522.6"/><path d="M319.3,527.0 Q305.7,568.1 276.5,600.0"/><path d="M276.5,600.0 L377.0,600.0"/><path d="M414.7,0.0 L495.3,0.0"/><path d="M414.7,0.0 Q417.9,38.1 410.9,75.7"/><path d="M410.9,75.7 Q456.9,76.1 501.1,89.1"/><path d="M410.9,75.7 Q403.9,155.2 426.0,231.8"/><path d="M426.0,231.8 Q449.3,205.7 479.3,187.7"/><path d="M426.0,231.8 Q403.5,281.3 380.9,330.8"/><path d="M380.9,330.8 Q440.7,283.5 515.1,267.3"/><path d="M380.9,330.8 Q390.8,364.3 393.1,399.1"/><path d="M393.1,399.1 Q447.8,378.4 503.7,396.0"/><path d="M393.1,399.1 Q424.3,457.3 433.3,522.6"/><path d="M433.3,522.6 Q444.3,499.7 467.2,488.5"/><path d="M433.3,522.6 Q398.7,556.6 377.0,600.0"/><path d="M377.0,600.0 L508.4,600.0"/><path d="M495.3,0.0 L600.0,0.0"/><path d="M495.3,0.0 Q496.6,44.6 501.1,89.1"/><path d="M501.1,89.1 Q551.8,83.9 600.0,100.8"/><path d="M501.1,89.1 Q491.1,138.6 479.3,187.7"/><path d="M479.3,187.7 Q542.4,197.9 600.0,170.4"/><path d="M479.3,187.7 Q508.5,222.4 515.1,267.3"/><path d="M515.1,267.3 Q550.0,309.9 600.0,333.0"/><path d="M515.1,267.3 Q512.5,331.9 503.7,396.0"/><path d="M503.7,396.0 Q551.9,407.6 600.0,419.6"/><path d="M503.7,396.0 Q474.3,437.9 467.2,488.5"/><path d="M467.2,488.5 Q535.3,505.2 600.0,532.1"/><path d="M467.2,488.5 Q487.6,544.4 508.4,600.0"/><path d="M508.4,600.0 L600.0,600.0"/><path d="M600.0,0.0 L600.0,100.8"/><path d="M600.0,100.8 L600.0,170.4"/><path d="M600.0,170.4 L600.0,333.0"/><path d="M600.0,333.0 L600.0,419.6"/><path d="M600.0,419.6 L600.0,532.1"/><path d="M600.0,532.1 L600.0,600.0"/></g></svg>