<svg xmlns="http://www.w3.org/2000/svg" width="600" height="600" viewBox="0 0 600 600" opacity="0.14"><g fill="none" stroke="#F2EBDB" stroke-width="1.3" stroke-linecap="round"><path d="M0.0,0.0 L90.9,0.0"/><path d="M0.0,0.0 L0.0,88.0"/><path d="M0.0,88.0 Q36.9,83.2 69.9,100.5"/><path d="M0.0,88.0 L0.0,176.3"/><path d="M0.0,176.3 Q32.9,190.8 68.5,195.5"/><path d="M0.0,176.3 L0.0,310.3"/><path d="M0.0,310.3 Q37.4,295.0 70.8,272.2"/><path d="M0.0,310.3 L0.0,370.9"/><path d="M0.0,370.9 Q38.3,413.4 94.9,422.2"/><path d="M0.0,370.9 L0.0,502.4"/><path d="M0.0,502.4 Q39.7,500.4 74.4,481.2"/><path d="M0.0,502.4 L0.0,600.0"/><path d="M0.0,600.0 L108.7,600.0"/><path d="M90.9,0.0 L230.4,0.0"/><path d="M90.9,0.0 Q88.2,51.9 69.9,100.5"/><path d="M69.9,100.5 Q137.3,91.2 205.2,93.0"/><path d="M69.9,100.5 Q63.5,147.9 68.5,195.5"/><path d="M68.5,195.5 Q145.9,154.2 232.4,169.2"/><path d="M68.5,195.5 Q70.7,233.8 70.8,272.2"/><path d="M70.8,272.2 Q149.2,260.6 224.4,285.7"/><path d="M70.8,272.2 Q103.5,343.9 94.9,422.2"/><path d="M94.9,422.2 Q127.7,385.3 175.8,374.0"/><path d="M94.9,422.2 Q79.0,449.7 74.4,481.2"/><path d="M74.4,481.2 Q136.1,486.3 187.0,521.5"/><path d="M74.4,481.2 Q102.3,537.5 108.7,600.0"/><path d="M108.7,600.0 L178.3,600.0"/><path d="M230.4,0.0 L305.5,0.0"/><path d="M230.4,0.0 Q221.5,47.5 205.2,93.0"/><path d="M205.2,93.0 Q257.6,106.1 309.4,91.3"/><path d="M205.2,93.0 Q230.3,127.0 232.4,169.2"/><path d="M232.4,169.2 Q267.8,168.4 303.2,170.3"/><path d="M232.4,169.2 Q226.3,227.3 224.4,285.7"/><path d="M224.4,285.7 Q248.0,289.2 270.1,280.0"/><path d="M224.4,285.7 Q189.9,324.3 175.8,374.0"/><path d="M175.8,374.0 Q241.3,402.4 312.3,395.1"/><path d="M175.8,374.0 Q193.2,446.9 187.0,521.5"/><path d="M187.0,521.5 Q236.7,510.6 287.4,505.8"/><path d="M187.0,521.5 Q186.6,561.2 178.3,600.0"/><path d="M178.3,600.0 L296.8,600.0"/><path d="M305.5,0.0 L386.4,0.0"/><path d="M305.5,0.0 Q294.9,46.2 309.4,91.3"/><path d="M309.4,91.3 Q361.1,120.6 420.0,113.5"/><path d="M309.4,91.3 Q316.3,131.6 303.2,170.3"/><path d="M303.2,170.3 Q347.0,178.4 382.6,205.1"/><path d="M303.2,170.3 Q297.2,228.3 270.1,280.0"/><path d="M270.1,280.0 Q340.3,290.1 401.7,325.5"/><path d="M270.1,280.0 Q291.8,337.3 312.3,395.1"/><path d="M312.3,395.1 Q364.2,393.6 415.6,385.6"/><path d="M312.3,395.1 Q309.3,452.6 287.4,505.8"/><path d="M287.4,505.8 Q354.3,464.0 432.7,474.0"/><path d="M287.4,505.8 Q294.8,552.6 296.8,600.0"/><path d="M296.8,600.0 L394.4,600.0"/><path d="M386.4,0.0 L517.5,0.0"/><path d="M386.4,0.0 Q408.5,55.2 420.0,113.5"/><path d="M420.0,113.5 Q448.5,107.7 476.3,99.2"/><path d="M420.0,113.5 Q386.4,153.2 382.6,205.1"/><path d="M382.6,205.1 Q425.2,214.2 468.7,211.4"/><path d="M382.6,205.1 Q391.5,265.4 401.7,325.5"/><path d="M401.7,325.5 Q460.7,320.2 518.0,305.0"/><path d="M401.7,325.5 Q404.8,356.4 415.6,385.6"/><path d="M415.6,385.6 Q470.8,368.8 525.5,387.3"/><path d="M415.6,385.6 Q411.4,432.3 432.7,474.0"/><path d="M432.7,474.0 Q469.7,498.3 513.3,506.4"/><path d="M432.7,474.0 Q396.6,531.9 394.4,600.0"/><path d="M394.4,600.0 L505.4,600.0"/><path d="M517.5,0.0 L600.0,0.0"/><path d="M517.5,0.0 Q486.3,45.2 476.3,99.2"/><path d="M476.3,99.2 Q538.1,93.3 600.0,97.0"/><path d="M476.3,99.2 Q476.6,155.6 468.7,211.4"/><path d="M468.7,211.4 Q536.0,198.5 600.0,223.1"/><path d="M468.7,211.4 Q488.8,260.6 518.0,305.0"/><path d="M518.0,305.0 Q563.0,304.7 600.0,330.2"/><path d="M518.0,305.0 Q534.6,345.0 525.5,387.3"/><path d="M525.5,387.3 Q563.9,385.0 600.0,398.2"/><path d="M525.5,387.3 Q533.9,448.4 513.3,506.4"/><path d="M513.3,506.4 Q556.9,503.8 600.0,511.2"/><path d="M513.3,506.4 Q524.4,554.5 505.4,600.0"/><path d="M505.4,600.0 L600.0,600.0"/><path d="M600.0,0.0 L600.0,97.0"/><path d="M600.0,97.0 L600.0,223.1"/><path d="M600.0,223.1 L600.0,330.2"/><path d="M600.0,330.2 L600.0,398.2"/><path d="M600.0,398.2 L600.0,511.2"/><path d="M600.0,511.2 L600.0,600.0"/></g></svg>