<svg xmlns="http://www.w3.org/2000/svg" width="1200" height="1000" viewBox="0 0 1200 1000" opacity="0.1"><path d="M0.0,-3.5 Q0.0,-3.5 21.4,-7.8 Q42.9,-12.1 64.3,-15.6 Q85.7,-19.1 107.1,-19.2 Q128.6,-19.3 150.0,-15.9 Q171.4,-12.5 192.9,-8.1 Q214.3,-3.8 235.7,-1.8 Q257.1,0.2 278.6,-1.6 Q300.0,-3.5 321.4,-7.8 Q342.9,-12.1 364.3,-15.6 Q385.7,-19.1 407.1,-19.2 Q428.6,-19.3 450.0,-15.9 Q471.4,-12.5 492.9,-8.1 Q514.3,-3.8 535.7,-1.8 Q557.1,0.2 578.6,-1.6 Q600.0,-3.5 621.4,-7.8 Q642.9,-12.1 664.3,-15.6 Q685.7,-19.1 707.1,-19.2 Q728.6,-19.3 750.0,-15.9 Q771.4,-12.5 792.9,-8.1 Q814.3,-3.8 835.7,-1.8 Q857.1,0.2 878.6,-1.6 Q900.0,-3.5 921.4,-7.8 Q942.9,-12.1 964.3,-15.6 Q985.7,-19.1 1007.1,-19.2 Q1028.6,-19.3 1050.0,-15.9 Q1071.4,-12.5 1092.9,-8.1 Q1114.3,-3.8 1135.7,-1.8 Q1157.1,0.2 1178.6,-1.6" fill="none" stroke="#9A3922" stroke-width="1.4"/><path d="M0.0,4.2 Q0.0,4.2 21.4,7.4 Q42.9,10.7 64.3,17.6 Q85.7,24.6 107.1,30.0 Q128.6,35.3 150.0,35.1 Q171.4,34.9 192.9,29.2 Q214.3,23.5 235.7,16.7 Q257.1,9.9 278.6,7.0 Q300.0,4.2 321.4,7.4 Q342.9,10.7 364.3,17.6 Q385.7,24.6 407.1,30.0 Q428.6,35.3 450.0,35.1 Q471.4,34.9 492.9,29.2 Q514.3,23.5 535.7,16.7 Q557.1,9.9 578.6,7.0 Q600.0,4.2 621.4,7.4 Q642.9,10.7 664.3,17.6 Q685.7,24.6 707.1,30.0 Q728.6,35.3 750.0,35.1 Q771.4,34.9 792.9,29.2 Q814.3,23.5 835.7,16.7 Q857.1,9.9 878.6,7.0 Q900.0,4.2 921.4,7.4 Q942.9,10.7 964.3,17.6 Q985.7,24.6 1007.1,30.0 Q1028.6,35.3 1050.0,35.1 Q1071.4,34.9 1092.9,29.2 Q1114.3,23.5 1135.7,16.7 Q1157.1,9.9 1178.6,7.0" fill="none" stroke="#9A3922" stroke-width="1.4"/><path d="M0.0,33.9 Q0.0,33.9 42.9,40.9 Q85.7,47.9 128.6,55.9 Q171.4,64.0 214.3,67.0 Q257.1,70.1 300.0,65.8 Q342.9,61.5 385.7,53.2 Q428.6,44.9 471.4,38.7 Q514.3,32.6 557.1,33.2 Q600.0,33.9 642.9,40.9 Q685.7,47.9 728.6,55.9 Q771.4,64.0 814.3,67.0 Q857.1,70.1 900.0,65.8 Q942.9,61.5 985.7,53.2 Q1028.6,44.9 1071.4,38.7 Q1114.3,32.6 1157.1,33.2 Q1200.0,33.9 1242.9,40.9" fill="none" stroke="#9A3922" stroke-width="1.4"/><path d="M0.0,70.8 Q0.0,70.8 28.6,78.3 Q57.1,85.8 85.7,88.9 Q114.3,92.0 142.9,88.4 Q171.4,84.7 200.0,77.1 Q228.6,69.5 257.1,63.6 Q285.7,57.7 314.3,58.0 Q342.9,58.3 371.4,64.6 Q400.0,70.8 428.6,78.3 Q457.1,85.8 485.7,88.9 Q514.3,92.0 542.9,88.4 Q571.4,84.7 600.0,77.1 Q628.6,69.5 657.1,63.6 Q685.7,57.7 714.3,58.0 Q742.9,58.3 771.4,64.6 Q800.0,70.8 828.6,78.3 Q857.1,85.8 885.7,88.9 Q914.3,92.0 942.9,88.4 Q971.4,84.7 1000.0,77.1 Q1028.6,69.5 1057.1,63.6 Q1085.7,57.7 1114.3,58.0 Q1142.9,58.3 1171.4,64.6 Q1200.0,70.8 1228.6,78.3" fill="none" stroke="#9A3922" stroke-width="1.4"/><path d="M0.0,85.4 Q0.0,85.4 28.6,89.2 Q57.1,93.1 85.7,99.3 Q114.3,105.5 142.9,109.4 Q171.4,113.3 200.0,111.9 Q228.6,110.6 257.1,105.0 Q285.7,99.4 314.3,93.8 Q342.9,88.2 371.4,86.8 Q400.0,85.4 428.6,89.2 Q457.1,93.1 485.7,99.3 Q514.3,105.5 542.9,109.4 Q571.4,113.3 600.0,111.9 Q628.6,110.6 657.1,105.0 Q685.7,99.4 714.3,93.8 Q742.9,88.2 771.4,86.8 Q800.0,85.4 828.6,89.2 Q857.1,93.1 885.7,99.3 Q914.3,105.5 942.9,109.4 Q971.4,113.3 1000.0,111.9 Q1028.6,110.6 1057.1,105.0 Q1085.7,99.4 1114.3,93.8 Q1142.9,88.2 1171.4,86.8 Q1200.0,85.4 1228.6,89.2" fill="none" stroke="#9A3922" stroke-width="1.4"/><path d="M0.0,115.2 Q0.0,115.2 21.4,122.9 Q42.9,130.7 64.3,136.1 Q85.7,141.5 107.1,140.5 Q128.6,139.5 150.0,132.9 Q171.4,126.2 192.9,118.9 Q214.3,111.6 235.7,109.1 Q257.1,106.7 278.6,110.9 Q300.0,115.2 321.4,122.9 Q342.9,130.7 364.3,136.1 Q385.7,141.5 407.1,140.5 Q428.6,139.5 450.0,132.9 Q471.4,126.2 492.9,118.9 Q514.3,111.6 535.7,109.1 Q557.1,106.7 578.6,110.9 Q600.0,115.2 621.4,122.9 Q642.9,130.7 664.3,136.1 Q685.7,141.5 707.1,140.5 Q728.6,139.5 750.0,132.9 Q771.4,126.2 792.9,118.9 Q814.3,111.6 835.7,109.1 Q857.1,106.7 878.6,110.9 Q900.0,115.2 921.4,122.9 Q942.9,130.7 964.3,136.1 Q985.7,141.5 1007.1,140.5 Q1028.6,139.5 1050.0,132.9 Q1071.4,126.2 1092.9,118.9 Q1114.3,111.6 1135.7,109.1 Q1157.1,106.7 1178.6,110.9" fill="none" stroke="#9A3922" stroke-width="1.4"/><path d="M0.0,161.6 Q0.0,161.6 42.9,167.6 Q85.7,173.6 128.6,172.8 Q171.4,172.1 214.3,165.3 Q257.1,158.4 300.0,150.5 Q342.9,142.7 385.7,139.7 Q428.6,136.8 471.4,141.0 Q514.3,145.2 557.1,153.4 Q600.0,161.6 642.9,167.6 Q685.7,173.6 728.6,172.8 Q771.4,172.1 814.3,165.3 Q857.1,158.4 900.0,150.5 Q942.9,142.7 985.7,139.7 Q1028.6,136.8 1071.4,141.0 Q1114.3,145.2 1157.1,153.4 Q1200.0,161.6 1242.9,167.6" fill="none" stroke="#9A3922" stroke-width="1.4"/><path d="M0.0,176.0 Q0.0,176.0 28.6,175.0 Q57.1,174.0 85.7,177.0 Q114.3,179.9 142.9,184.6 Q171.4,189.4 200.0,192.3 Q228.6,195.2 257.1,194.1 Q285.7,193.0 314.3,188.7 Q342.9,184.5 371.4,180.2 Q400.0,176.0 428.6,175.0 Q457.1,174.0 485.7,177.0 Q514.3,179.9 542.9,184.6 Q571.4,189.4 600.0,192.3 Q628.6,195.2 657.1,194.1 Q685.7,193.0 714.3,188.7 Q742.9,184.5 771.4,180.2 Q800.0,176.0 828.6,175.0 Q857.1,174.0 885.7,177.0 Q914.3,179.9 942.9,184.6 Q971.4,189.4 1000.0,192.3 Q1028.6,195.2 1057.1,194.1 Q1085.7,193.0 1114.3,188.7 Q1142.9,184.5 1171.4,180.2 Q1200.0,176.0 1228.6,175.0" fill="none" stroke="#9A3922" stroke-width="1.4"/><path d="M0.0,222.3 Q0.0,222.3 28.6,222.6 Q57.1,223.0 85.7,217.7 Q114.3,212.4 142.9,205.5 Q171.4,198.5 200.0,195.2 Q228.6,191.8 257.1,194.5 Q285.7,197.3 314.3,204.0 Q342.9,210.8 371.4,216.5 Q400.0,222.3 428.6,222.6 Q457.1,223.0 485.7,217.7 Q514.3,212.4 542.9,205.5 Q571.4,198.5 600.0,195.2 Q628.6,191.8 657.1,194.5 Q685.7,197.3 714.3,204.0 Q742.9,210.8 771.4,216.5 Q800.0,222.3 828.6,222.6 Q857.1,223.0 885.7,217.7 Q914.3,212.4 942.9,205.5 Q971.4,198.5 1000.0,195.2 Q1028.6,191.8 1057.1,194.5 Q1085.7,197.3 1114.3,204.0 Q1142.9,210.8 1171.4,216.5 Q1200.0,222.3 1228.6,222.6" fill="none" stroke="#9A3922" stroke-width="1.4"/><path d="M0.0,213.6 Q0.0,213.6 28.6,216.7 Q57.1,219.8 85.7,227.9 Q114.3,235.9 142.9,242.9 Q171.4,249.8 200.0,250.4 Q228.6,251.0 257.1,244.8 Q285.7,238.6 314.3,230.3 Q342.9,222.0 371.4,217.8 Q400.0,213.6 428.6,216.7 Q457.1,219.8 485.7,227.9 Q514.3,235.9 542.9,242.9 Q571.4,249.8 600.0,250.4 Q628.6,251.0 657.1,244.8 Q685.7,238.6 714.3,230.3 Q742.9,222.0 771.4,217.8 Q800.0,213.6 828.6,216.7 Q857.1,219.8 885.7,227.9 Q914.3,235.9 942.9,242.9 Q971.4,249.8 1000.0,250.4 Q1028.6,251.0 1057.1,244.8 Q1085.7,238.6 1114.3,230.3 Q1142.9,222.0 1171.4,217.8 Q1200.0,213.6 1228.6,216.7" fill="none" stroke="#9A3922" stroke-width="1.4"/><path d="M0.0,277.7 Q0.0,277.7 28.6,273.6 Q57.1,269.4 85.7,263.5 Q114.3,257.6 142.9,254.4 Q171.4,251.1 200.0,253.0 Q228.6,254.8 257.1,260.4 Q285.7,266.0 314.3,271.1 Q342.9,276.1 371.4,276.9 Q400.0,277.7 428.6,273.6 Q457.1,269.4 485.7,263.5 Q514.3,257.6 542.9,254.4 Q571.4,251.1 600.0,253.0 Q628.6,254.8 657.1,260.4 Q685.7,266.0 714.3,271.1 Q742.9,276.1 771.4,276.9 Q800.0,277.7 828.6,273.6 Q857.1,269.4 885.7,263.5 Q914.3,257.6 942.9,254.4 Q971.4,251.1 1000.0,253.0 Q1028.6,254.8 1057.1,260.4 Q1085.7,266.0 1114.3,271.1 Q1142.9,276.1 1171.4,276.9 Q1200.0,277.7 1228.6,273.6" fill="none" stroke="#9A3922" stroke-width="1.4"/><path d="M0.0,279.7 Q0.0,279.7 28.6,278.3 Q57.1,276.8 85.7,280.9 Q114.3,284.9 142.9,291.4 Q171.4,297.9 200.0,301.9 Q228.6,305.9 257.1,304.5 Q285.7,303.1 314.3,297.2 Q342.9,291.4 371.4,285.5 Q400.0,279.7 428.6,278.3 Q457.1,276.8 485.7,280.9 Q514.3,284.9 542.9,291.4 Q571.4,297.9 600.0,301.9 Q628.6,305.9 657.1,304.5 Q685.7,303.1 714.3,297.2 Q742.9,291.4 771.4,285.5 Q800.0,279.7 828.6,278.3 Q857.1,276.8 885.7,280.9 Q914.3,284.9 942.9,291.4 Q971.4,297.9 1000.0,301.9 Q1028.6,305.9 1057.1,304.5 Q1085.7,303.1 1114.3,297.2 Q1142.9,291.4 1171.4,285.5 Q1200.0,279.7 1228.6,278.3" fill="none" stroke="#9A3922" stroke-width="1.4"/><path d="M0.0,305.8 Q0.0,305.8 21.4,299.3 Q42.9,292.8 64.3,293.6 Q85.7,294.4 107.1,302.0 Q128.6,309.5 150.0,318.1 Q171.4,326.7 192.9,329.8 Q214.3,333.0 235.7,328.4 Q257.1,323.7 278.6,314.8 Q300.0,305.8 321.4,299.3 Q342.9,292.8 364.3,293.6 Q385.7,294.4 407.1,302.0 Q428.6,309.5 450.0,318.1 Q471.4,326.7 492.9,329.8 Q514.3,333.0 535.7,328.4 Q557.1,323.7 578.6,314.8 Q600.0,305.8 621.4,299.3 Q642.9,292.8 664.3,293.6 Q685.7,294.4 707.1,302.0 Q728.6,309.5 750.0,318.1 Q771.4,326.7 792.9,329.8 Q814.3,333.0 835.7,328.4 Q857.1,323.7 878.6,314.8 Q900.0,305.8 921.4,299.3 Q942.9,292.8 964.3,293.6 Q985.7,294.4 1007.1,302.0 Q1028.6,309.5 1050.0,318.1 Q1071.4,326.7 1092.9,329.8 Q1114.3,333.0 1135.7,328.4 Q1157.1,323.7 1178.6,314.8" fill="none" stroke="#9A3922" stroke-width="1.4"/><path d="M0.0,345.5 Q0.0,345.5 21.4,337.9 Q42.9,330.2 64.3,325.4 Q85.7,320.6 107.1,322.2 Q128.6,323.8 150.0,330.7 Q171.4,337.6 192.9,344.5 Q214.3,351.4 235.7,353.2 Q257.1,354.9 278.6,350.2 Q300.0,345.5 321.4,337.9 Q342.9,330.2 364.3,325.4 Q385.7,320.6 407.1,322.2 Q428.6,323.8 450.0,330.7 Q471.4,337.6 492.9,344.5 Q514.3,351.4 535.7,353.2 Q557.1,354.9 578.6,350.2 Q600.0,345.5 621.4,337.9 Q642.9,330.2 664.3,325.4 Q685.7,320.6 707.1,322.2 Q728.6,323.8 750.0,330.7 Q771.4,337.6 792.9,344.5 Q814.3,351.4 835.7,353.2 Q857.1,354.9 878.6,350.2 Q900.0,345.5 921.4,337.9 Q942.9,330.2 964.3,325.4 Q985.7,320.6 1007.1,322.2 Q1028.6,323.8 1050.0,330.7 Q1071.4,337.6 1092.9,344.5 Q1114.3,351.4 1135.7,353.2 Q1157.1,354.9 1178.6,350.2" fill="none" stroke="#9A3922" stroke-width="1.4"/><path d="M0.0,372.5 Q0.0,372.5 28.6,368.9 Q57.1,365.2 85.7,361.2 Q114.3,357.3 142.9,355.9 Q171.4,354.6 200.0,356.9 Q228.6,359.2 257.1,363.4 Q285.7,367.7 314.3,370.6 Q342.9,373.6 371.4,373.0 Q400.0,372.5 428.6,368.9 Q457.1,365.2 485.7,361.2 Q514.3,357.3 542.9,355.9 Q571.4,354.6 600.0,356.9 Q628.6,359.2 657.1,363.4 Q685.7,367.7 714.3,370.6 Q742.9,373.6 771.4,373.0 Q800.0,372.5 828.6,368.9 Q857.1,365.2 885.7,361.2 Q914.3,357.3 942.9,355.9 Q971.4,354.6 1000.0,356.9 Q1028.6,359.2 1057.1,363.4 Q1085.7,367.7 1114.3,370.6 Q1142.9,373.6 1171.4,373.0 Q1200.0,372.5 1228.6,368.9" fill="none" stroke="#9A3922" stroke-width="1.4"/><path d="M0.0,369.1 Q0.0,369.1 28.6,374.6 Q57.1,380.2 85.7,387.7 Q114.3,395.2 142.9,399.0 Q171.4,402.8 200.0,400.1 Q228.6,397.3 257.1,390.1 Q285.7,382.8 314.3,376.6 Q342.9,370.3 371.4,369.7 Q400.0,369.1 428.6,374.6 Q457.1,380.2 485.7,387.7 Q514.3,395.2 542.9,399.0 Q571.4,402.8 600.0,400.1 Q628.6,397.3 657.1,390.1 Q685.7,382.8 714.3,376.6 Q742.9,370.3 771.4,369.7 Q800.0,369.1 828.6,374.6 Q857.1,380.2 885.7,387.7 Q914.3,395.2 942.9,399.0 Q971.4,402.8 1000.0,400.1 Q1028.6,397.3 1057.1,390.1 Q1085.7,382.8 1114.3,376.6 Q1142.9,370.3 1171.4,369.7 Q1200.0,369.1 1228.6,374.6" fill="none" stroke="#9A3922" stroke-width="1.4"/><path d="M0.0,419.8 Q0.0,419.8 21.4,412.4 Q42.9,405.0 64.3,398.6 Q85.7,392.3 107.1,391.8 Q128.6,391.3 150.0,397.0 Q171.4,402.8 192.9,410.4 Q214.3,418.0 235.7,421.8 Q257.1,425.5 278.6,422.7 Q300.0,419.8 321.4,412.4 Q342.9,405.0 364.3,398.6 Q385.7,392.3 407.1,391.8 Q428.6,391.3 450.0,397.0 Q471.4,402.8 492.9,410.4 Q514.3,418.0 535.7,421.8 Q557.1,425.5 578.6,422.7 Q600.0,419.8 621.4,412.4 Q642.9,405.0 664.3,398.6 Q685.7,392.3 707.1,391.8 Q728.6,391.3 750.0,397.0 Q771.4,402.8 792.9,410.4 Q814.3,418.0 835.7,421.8 Q857.1,425.5 878.6,422.7 Q900.0,419.8 921.4,412.4 Q942.9,405.0 964.3,398.6 Q985.7,392.3 1007.1,391.8 Q1028.6,391.3 1050.0,397.0 Q1071.4,402.8 1092.9,410.4 Q1114.3,418.0 1135.7,421.8 Q1157.1,425.5 1178.6,422.7" fill="none" stroke="#9A3922" stroke-width="1.4"/><path d="M0.0,448.0 Q0.0,448.0 28.6,443.2 Q57.1,438.3 85.7,432.9 Q114.3,427.5 142.9,425.5 Q171.4,423.6 200.0,426.6 Q228.6,429.6 257.1,435.3 Q285.7,441.0 314.3,445.1 Q342.9,449.2 371.4,448.6 Q400.0,448.0 428.6,443.2 Q457.1,438.3 485.7,432.9 Q514.3,427.5 542.9,425.5 Q571.4,423.6 600.0,426.6 Q628.6,429.6 657.1,435.3 Q685.7,441.0 714.3,445.1 Q742.9,449.2 771.4,448.6 Q800.0,448.0 828.6,443.2 Q857.1,438.3 885.7,432.9 Q914.3,427.5 942.9,425.5 Q971.4,423.6 1000.0,426.6 Q1028.6,429.6 1057.1,435.3 Q1085.7,441.0 1114.3,445.1 Q1142.9,449.2 1171.4,448.6 Q1200.0,448.0 1228.6,443.2" fill="none" stroke="#9A3922" stroke-width="1.4"/><path d="M0.0,467.7 Q0.0,467.7 28.6,469.8 Q57.1,471.8 85.7,468.4 Q114.3,465.1 142.9,458.9 Q171.4,452.7 200.0,448.3 Q228.6,443.9 257.1,444.6 Q285.7,445.4 314.3,450.7 Q342.9,456.0 371.4,461.8 Q400.0,467.7 428.6,469.8 Q457.1,471.8 485.7,468.4 Q514.3,465.1 542.9,458.9 Q571.4,452.7 600.0,448.3 Q628.6,443.9 657.1,444.6 Q685.7,445.4 714.3,450.7 Q742.9,456.0 771.4,461.8 Q800.0,467.7 828.6,469.8 Q857.1,471.8 885.7,468.4 Q914.3,465.1 942.9,458.9 Q971.4,452.7 1000.0,448.3 Q1028.6,443.9 1057.1,444.6 Q1085.7,445.4 1114.3,450.7 Q1142.9,456.0 1171.4,461.8 Q1200.0,467.7 1228.6,469.8" fill="none" stroke="#9A3922" stroke-width="1.4"/><path d="M0.0,495.4 Q0.0,495.4 28.6,500.2 Q57.1,505.1 85.7,501.8 Q114.3,498.5 142.9,489.6 Q171.4,480.7 200.0,472.8 Q228.6,465.0 257.1,464.1 Q285.7,463.3 314.3,470.1 Q342.9,476.8 371.4,486.1 Q400.0,495.4 428.6,500.2 Q457.1,505.1 485.7,501.8 Q514.3,498.5 542.9,489.6 Q571.4,480.7 600.0,472.8 Q628.6,465.0 657.1,464.1 Q685.7,463.3 714.3,470.1 Q742.9,476.8 771.4,486.1 Q800.0,495.4 828.6,500.2 Q857.1,505.1 885.7,501.8 Q914.3,498.5 942.9,489.6 Q971.4,480.7 1000.0,472.8 Q1028.6,465.0 1057.1,464.1 Q1085.7,463.3 1114.3,470.1 Q1142.9,476.8 1171.4,486.1 Q1200.0,495.4 1228.6,500.2" fill="none" stroke="#9A3922" stroke-width="1.4"/><path d="M0.0,521.7 Q0.0,521.7 21.4,514.0 Q42.9,506.3 64.3,501.6 Q85.7,496.9 107.1,498.7 Q128.6,500.6 150.0,507.6 Q171.4,514.6 192.9,521.5 Q214.3,528.4 235.7,530.0 Q257.1,531.6 278.6,526.7 Q300.0,521.7 321.4,514.0 Q342.9,506.3 364.3,501.6 Q385.7,496.9 407.1,498.7 Q428.6,500.6 450.0,507.6 Q471.4,514.6 492.9,521.5 Q514.3,528.4 535.7,530.0 Q557.1,531.6 578.6,526.7 Q600.0,521.7 621.4,514.0 Q642.9,506.3 664.3,501.6 Q685.7,496.9 707.1,498.7 Q728.6,500.6 750.0,507.6 Q771.4,514.6 792.9,521.5 Q814.3,528.4 835.7,530.0 Q857.1,531.6 878.6,526.7 Q900.0,521.7 921.4,514.0 Q942.9,506.3 964.3,501.6 Q985.7,496.9 1007.1,498.7 Q1028.6,500.6 1050.0,507.6 Q1071.4,514.6 1092.9,521.5 Q1114.3,528.4 1135.7,530.0 Q1157.1,531.6 1178.6,526.7" fill="none" stroke="#9A3922" stroke-width="1.4"/><path d="M0.0,547.6 Q0.0,547.6 42.9,549.5 Q85.7,551.3 128.6,548.2 Q171.4,545.0 214.3,539.2 Q257.1,533.5 300.0,529.4 Q342.9,525.4 385.7,526.1 Q428.6,526.8 471.4,531.8 Q514.3,536.7 557.1,542.2 Q600.0,547.6 642.9,549.5 Q685.7,551.3 728.6,548.2 Q771.4,545.0 814.3,539.2 Q857.1,533.5 900.0,529.4 Q942.9,525.4 985.7,526.1 Q1028.6,526.8 1071.4,531.8 Q1114.3,536.7 1157.1,542.2 Q1200.0,547.6 1242.9,549.5" fill="none" stroke="#9A3922" stroke-width="1.4"/><path d="M0.0,559.0 Q0.0,559.0 21.4,567.7 Q42.9,576.4 64.3,580.1 Q85.7,583.9 107.1,579.8 Q128.6,575.7 150.0,566.9 Q171.4,558.1 192.9,551.2 Q214.3,544.3 235.7,544.5 Q257.1,544.7 278.6,551.8 Q300.0,559.0 321.4,567.7 Q342.9,576.4 364.3,580.1 Q385.7,583.9 407.1,579.8 Q428.6,575.7 450.0,566.9 Q471.4,558.1 492.9,551.2 Q514.3,544.3 535.7,544.5 Q557.1,544.7 578.6,551.8 Q600.0,559.0 621.4,567.7 Q642.9,576.4 664.3,580.1 Q685.7,583.9 707.1,579.8 Q728.6,575.7 750.0,566.9 Q771.4,558.1 792.9,551.2 Q814.3,544.3 835.7,544.5 Q857.1,544.7 878.6,551.8 Q900.0,559.0 921.4,567.7 Q942.9,576.4 964.3,580.1 Q985.7,583.9 1007.1,579.8 Q1028.6,575.7 1050.0,566.9 Q1071.4,558.1 1092.9,551.2 Q1114.3,544.3 1135.7,544.5 Q1157.1,544.7 1178.6,551.8" fill="none" stroke="#9A3922" stroke-width="1.4"/><path d="M0.0,585.8 Q0.0,585.8 21.4,593.4 Q42.9,600.9 64.3,604.0 Q85.7,607.1 107.1,603.3 Q128.6,599.6 150.0,591.9 Q171.4,584.2 192.9,578.3 Q214.3,572.4 235.7,572.8 Q257.1,573.2 278.6,579.5 Q300.0,585.8 321.4,593.4 Q342.9,600.9 364.3,604.0 Q385.7,607.1 407.1,603.3 Q428.6,599.6 450.0,591.9 Q471.4,584.2 492.9,578.3 Q514.3,572.4 535.7,572.8 Q557.1,573.2 578.6,579.5 Q600.0,585.8 621.4,593.4 Q642.9,600.9 664.3,604.0 Q685.7,607.1 707.1,603.3 Q728.6,599.6 750.0,591.9 Q771.4,584.2 792.9,578.3 Q814.3,572.4 835.7,572.8 Q857.1,573.2 878.6,579.5 Q900.0,585.8 921.4,593.4 Q942.9,600.9 964.3,604.0 Q985.7,607.1 1007.1,603.3 Q1028.6,599.6 1050.0,591.9 Q1071.4,584.2 1092.9,578.3 Q1114.3,572.4 1135.7,572.8 Q1157.1,573.2 1178.6,579.5" fill="none" stroke="#9A3922" stroke-width="1.4"/><path d="M0.0,622.2 Q0.0,622.2 28.6,623.1 Q57.1,624.0 85.7,620.4 Q114.3,616.8 142.9,611.4 Q171.4,606.0 200.0,602.8 Q228.6,599.7 257.1,601.2 Q285.7,602.7 314.3,607.7 Q342.9,612.7 371.4,617.5 Q400.0,622.2 428.6,623.1 Q457.1,624.0 485.7,620.4 Q514.3,616.8 542.9,611.4 Q571.4,606.0 600.0,602.8 Q628.6,599.7 657.1,601.2 Q685.7,602.7 714.3,607.7 Q742.9,612.7 771.4,617.5 Q800.0,622.2 828.6,623.1 Q857.1,624.0 885.7,620.4 Q914.3,616.8 942.9,611.4 Q971.4,606.0 1000.0,602.8 Q1028.6,599.7 1057.1,601.2 Q1085.7,602.7 1114.3,607.7 Q1142.9,612.7 1171.4,617.5 Q1200.0,622.2 1228.6,623.1" fill="none" stroke="#9A3922" stroke-width="1.4"/><path d="M0.0,650.6 Q0.0,650.6 21.4,653.8 Q42.9,657.1 64.3,655.3 Q85.7,653.5 107.1,648.0 Q128.6,642.5 150.0,637.5 Q171.4,632.4 192.9,631.6 Q214.3,630.8 235.7,634.8 Q257.1,638.9 278.6,644.7 Q300.0,650.6 321.4,653.8 Q342.9,657.1 364.3,655.3 Q385.7,653.5 407.1,648.0 Q428.6,642.5 450.0,637.5 Q471.4,632.4 492.9,631.6 Q514.3,630.8 535.7,634.8 Q557.1,638.9 578.6,644.7 Q600.0,650.6 621.4,653.8 Q642.9,657.1 664.3,655.3 Q685.7,653.5 707.1,648.0 Q728.6,642.5 750.0,637.5 Q771.4,632.4 792.9,631.6 Q814.3,630.8 835.7,634.8 Q857.1,638.9 878.6,644.7 Q900.0,650.6 921.4,653.8 Q942.9,657.1 964.3,655.3 Q985.7,653.5 1007.1,648.0 Q1028.6,642.5 1050.0,637.5 Q1071.4,632.4 1092.9,631.6 Q1114.3,630.8 1135.7,634.8 Q1157.1,638.9 1178.6,644.7" fill="none" stroke="#9A3922" stroke-width="1.4"/><path d="M0.0,690.8 Q0.0,690.8 28.6,688.2 Q57.1,685.6 85.7,678.3 Q114.3,671.0 142.9,664.4 Q171.4,657.8 200.0,657.0 Q228.6,656.1 257.1,661.6 Q285.7,667.1 314.3,674.8 Q342.9,682.5 371.4,686.7 Q400.0,690.8 428.6,688.2 Q457.1,685.6 485.7,678.3 Q514.3,671.0 542.9,664.4 Q571.4,657.8 600.0,657.0 Q628.6,656.1 657.1,661.6 Q685.7,667.1 714.3,674.8 Q742.9,682.5 771.4,686.7 Q800.0,690.8 828.6,688.2 Q857.1,685.6 885.7,678.3 Q914.3,671.0 942.9,664.4 Q971.4,657.8 1000.0,657.0 Q1028.6,656.1 1057.1,661.6 Q1085.7,667.1 1114.3,674.8 Q1142.9,682.5 1171.4,686.7 Q1200.0,690.8 1228.6,688.2" fill="none" stroke="#9A3922" stroke-width="1.4"/><path d="M0.0,699.5 Q0.0,699.5 28.6,707.7 Q57.1,715.8 85.7,719.6 Q114.3,723.3 142.9,719.8 Q171.4,716.3 200.0,708.1 Q228.6,700.0 257.1,693.4 Q285.7,686.8 314.3,686.7 Q342.9,686.6 371.4,693.0 Q400.0,699.5 428.6,707.7 Q457.1,715.8 485.7,719.6 Q514.3,723.3 542.9,719.8 Q571.4,716.3 600.0,708.1 Q628.6,700.0 657.1,693.4 Q685.7,686.8 714.3,686.7 Q742.9,686.6 771.4,693.0 Q800.0,699.5 828.6,707.7 Q857.1,715.8 885.7,719.6 Q914.3,723.3 942.9,719.8 Q971.4,716.3 1000.0,708.1 Q1028.6,700.0 1057.1,693.4 Q1085.7,686.8 1114.3,686.7 Q1142.9,686.6 1171.4,693.0 Q1200.0,699.5 1228.6,707.7" fill="none" stroke="#9A3922" stroke-width="1.4"/><path d="M0.0,720.3 Q0.0,720.3 21.4,721.0 Q42.9,721.6 64.3,726.0 Q85.7,730.4 107.1,735.2 Q128.6,740.0 150.0,741.7 Q171.4,743.3 192.9,740.5 Q214.3,737.7 235.7,732.6 Q257.1,727.5 278.6,723.9 Q300.0,720.3 321.4,721.0 Q342.9,721.6 364.3,726.0 Q385.7,730.4 407.1,735.2 Q428.6,740.0 450.0,741.7 Q471.4,743.3 492.9,740.5 Q514.3,737.7 535.7,732.6 Q557.1,727.5 578.6,723.9 Q600.0,720.3 621.4,721.0 Q642.9,721.6 664.3,726.0 Q685.7,730.4 707.1,735.2 Q728.6,740.0 750.0,741.7 Q771.4,743.3 792.9,740.5 Q814.3,737.7 835.7,732.6 Q857.1,727.5 878.6,723.9 Q900.0,720.3 921.4,721.0 Q942.9,721.6 964.3,726.0 Q985.7,730.4 1007.1,735.2 Q1028.6,740.0 1050.0,741.7 Q1071.4,743.3 1092.9,740.5 Q1114.3,737.7 1135.7,732.6 Q1157.1,727.5 1178.6,723.9" fill="none" stroke="#9A3922" stroke-width="1.4"/><path d="M0.0,763.7 Q0.0,763.7 28.6,756.7 Q57.1,749.7 85.7,743.9 Q114.3,738.1 142.9,737.9 Q171.4,737.7 200.0,743.2 Q228.6,748.7 257.1,755.8 Q285.7,762.9 314.3,766.2 Q342.9,769.5 371.4,766.6 Q400.0,763.7 428.6,756.7 Q457.1,749.7 485.7,743.9 Q514.3,738.1 542.9,737.9 Q571.4,737.7 600.0,743.2 Q628.6,748.7 657.1,755.8 Q685.7,762.9 714.3,766.2 Q742.9,769.5 771.4,766.6 Q800.0,763.7 828.6,756.7 Q857.1,749.7 885.7,743.9 Q914.3,738.1 942.9,737.9 Q971.4,737.7 1000.0,743.2 Q1028.6,748.7 1057.1,755.8 Q1085.7,762.9 1114.3,766.2 Q1142.9,769.5 1171.4,766.6 Q1200.0,763.7 1228.6,756.7" fill="none" stroke="#9A3922" stroke-width="1.4"/><path d="M0.0,770.7 Q0.0,770.7 42.9,763.6 Q85.7,756.4 128.6,756.5 Q171.4,756.6 214.3,763.8 Q257.1,771.1 300.0,780.0 Q342.9,788.9 385.7,792.8 Q428.6,796.8 471.4,792.7 Q514.3,788.6 557.1,779.7 Q600.0,770.7 642.9,763.6 Q685.7,756.4 728.6,756.5 Q771.4,756.6 814.3,763.8 Q857.1,771.1 900.0,780.0 Q942.9,788.9 985.7,792.8 Q1028.6,796.8 1071.4,792.7 Q1114.3,788.6 1157.1,779.7 Q1200.0,770.7 1242.9,763.6" fill="none" stroke="#9A3922" stroke-width="1.4"/><path d="M0.0,797.0 Q0.0,797.0 28.6,795.8 Q57.1,794.6 85.7,798.2 Q114.3,801.9 142.9,807.6 Q171.4,813.4 200.0,817.0 Q228.6,820.6 257.1,819.2 Q285.7,817.9 314.3,812.7 Q342.9,807.4 371.4,802.2 Q400.0,797.0 428.6,795.8 Q457.1,794.6 485.7,798.2 Q514.3,801.9 542.9,807.6 Q571.4,813.4 600.0,817.0 Q628.6,820.6 657.1,819.2 Q685.7,817.9 714.3,812.7 Q742.9,807.4 771.4,802.2 Q800.0,797.0 828.6,795.8 Q857.1,794.6 885.7,798.2 Q914.3,801.9 942.9,807.6 Q971.4,813.4 1000.0,817.0 Q1028.6,820.6 1057.1,819.2 Q1085.7,817.9 1114.3,812.7 Q1142.9,807.4 1171.4,802.2 Q1200.0,797.0 1228.6,795.8" fill="none" stroke="#9A3922" stroke-width="1.4"/><path d="M0.0,833.6 Q0.0,833.6 28.6,828.5 Q57.1,823.4 85.7,823.9 Q114.3,824.4 142.9,830.0 Q171.4,835.7 200.0,842.3 Q228.6,848.9 257.1,851.4 Q285.7,854.0 314.3,850.6 Q342.9,847.2 371.4,840.4 Q400.0,833.6 428.6,828.5 Q457.1,823.4 485.7,823.9 Q514.3,824.4 542.9,830.0 Q571.4,835.7 600.0,842.3 Q628.6,848.9 657.1,851.4 Q685.7,854.0 714.3,850.6 Q742.9,847.2 771.4,840.4 Q800.0,833.6 828.6,828.5 Q857.1,823.4 885.7,823.9 Q914.3,824.4 942.9,830.0 Q971.4,835.7 1000.0,842.3 Q1028.6,848.9 1057.1,851.4 Q1085.7,854.0 1114.3,850.6 Q1142.9,847.2 1171.4,840.4 Q1200.0,833.6 1228.6,828.5" fill="none" stroke="#9A3922" stroke-width="1.4"/><path d="M0.0,865.4 Q0.0,865.4 28.6,871.6 Q57.1,877.8 85.7,876.7 Q114.3,875.6 142.9,868.1 Q171.4,860.6 200.0,852.2 Q228.6,843.9 257.1,841.1 Q285.7,838.3 314.3,843.1 Q342.9,847.8 371.4,856.6 Q400.0,865.4 428.6,871.6 Q457.1,877.8 485.7,876.7 Q514.3,875.6 542.9,868.1 Q571.4,860.6 600.0,852.2 Q628.6,843.9 657.1,841.1 Q685.7,838.3 714.3,843.1 Q742.9,847.8 771.4,856.6 Q800.0,865.4 828.6,871.6 Q857.1,877.8 885.7,876.7 Q914.3,875.6 942.9,868.1 Q971.4,860.6 1000.0,852.2 Q1028.6,843.9 1057.1,841.1 Q1085.7,838.3 1114.3,843.1 Q1142.9,847.8 1171.4,856.6 Q1200.0,865.4 1228.6,871.6" fill="none" stroke="#9A3922" stroke-width="1.4"/><path d="M0.0,890.9 Q0.0,890.9 21.4,896.0 Q42.9,901.1 64.3,898.6 Q85.7,896.1 107.1,887.9 Q128.6,879.6 150.0,871.8 Q171.4,864.0 192.9,862.5 Q214.3,861.1 235.7,867.0 Q257.1,873.0 278.6,881.9 Q300.0,890.9 321.4,896.0 Q342.9,901.1 364.3,898.6 Q385.7,896.1 407.1,887.9 Q428.6,879.6 450.0,871.8 Q471.4,864.0 492.9,862.5 Q514.3,861.1 535.7,867.0 Q557.1,873.0 578.6,881.9 Q600.0,890.9 621.4,896.0 Q642.9,901.1 664.3,898.6 Q685.7,896.1 707.1,887.9 Q728.6,879.6 750.0,871.8 Q771.4,864.0 792.9,862.5 Q814.3,861.1 835.7,867.0 Q857.1,873.0 878.6,881.9 Q900.0,890.9 921.4,896.0 Q942.9,901.1 964.3,898.6 Q985.7,896.1 1007.1,887.9 Q1028.6,879.6 1050.0,871.8 Q1071.4,864.0 1092.9,862.5 Q1114.3,861.1 1135.7,867.0 Q1157.1,873.0 1178.6,881.9" fill="none" stroke="#9A3922" stroke-width="1.4"/><path d="M0.0,914.8 Q0.0,914.8 28.6,913.4 Q57.1,911.9 85.7,907.3 Q114.3,902.7 142.9,898.4 Q171.4,894.1 200.0,893.4 Q228.6,892.7 257.1,896.1 Q285.7,899.4 314.3,904.4 Q342.9,909.3 371.4,912.1 Q400.0,914.8 428.6,913.4 Q457.1,911.9 485.7,907.3 Q514.3,902.7 542.9,898.4 Q571.4,894.1 600.0,893.4 Q628.6,892.7 657.1,896.1 Q685.7,899.4 714.3,904.4 Q742.9,909.3 771.4,912.1 Q800.0,914.8 828.6,913.4 Q857.1,911.9 885.7,907.3 Q914.3,902.7 942.9,898.4 Q971.4,894.1 1000.0,893.4 Q1028.6,892.7 1057.1,896.1 Q1085.7,899.4 1114.3,904.4 Q1142.9,909.3 1171.4,912.1 Q1200.0,914.8 1228.6,913.4" fill="none" stroke="#9A3922" stroke-width="1.4"/><path d="M0.0,938.0 Q0.0,938.0 21.4,930.7 Q42.9,923.4 64.3,916.3 Q85.7,909.3 107.1,907.7 Q128.6,906.2 150.0,911.4 Q171.4,916.5 192.9,924.5 Q214.3,932.4 235.7,937.2 Q257.1,942.0 278.6,940.0 Q300.0,938.0 321.4,930.7 Q342.9,923.4 364.3,916.3 Q385.7,909.3 407.1,907.7 Q428.6,906.2 450.0,911.4 Q471.4,916.5 492.9,924.5 Q514.3,932.4 535.7,937.2 Q557.1,942.0 578.6,940.0 Q600.0,938.0 621.4,930.7 Q642.9,923.4 664.3,916.3 Q685.7,909.3 707.1,907.7 Q728.6,906.2 750.0,911.4 Q771.4,916.5 792.9,924.5 Q814.3,932.4 835.7,937.2 Q857.1,942.0 878.6,940.0 Q900.0,938.0 921.4,930.7 Q942.9,923.4 964.3,916.3 Q985.7,909.3 1007.1,907.7 Q1028.6,906.2 1050.0,911.4 Q1071.4,916.5 1092.9,924.5 Q1114.3,932.4 1135.7,937.2 Q1157.1,942.0 1178.6,940.0" fill="none" stroke="#9A3922" stroke-width="1.4"/><path d="M0.0,931.2 Q0.0,931.2 28.6,934.0 Q57.1,936.8 85.7,944.1 Q114.3,951.4 142.9,957.7 Q171.4,964.0 200.0,964.5 Q228.6,965.0 257.1,959.4 Q285.7,953.8 314.3,946.3 Q342.9,938.8 371.4,935.0 Q400.0,931.2 428.6,934.0 Q457.1,936.8 485.7,944.1 Q514.3,951.4 542.9,957.7 Q571.4,964.0 600.0,964.5 Q628.6,965.0 657.1,959.4 Q685.7,953.8 714.3,946.3 Q742.9,938.8 771.4,935.0 Q800.0,931.2 828.6,934.0 Q857.1,936.8 885.7,944.1 Q914.3,951.4 942.9,957.7 Q971.4,964.0 1000.0,964.5 Q1028.6,965.0 1057.1,959.4 Q1085.7,953.8 1114.3,946.3 Q1142.9,938.8 1171.4,935.0 Q1200.0,931.2 1228.6,934.0" fill="none" stroke="#9A3922" stroke-width="1.4"/><path d="M0.0,986.6 Q0.0,986.6 28.6,982.5 Q57.1,978.4 85.7,972.9 Q114.3,967.5 142.9,964.8 Q171.4,962.1 200.0,964.2 Q228.6,966.2 257.1,971.5 Q285.7,976.8 314.3,981.4 Q342.9,985.9 371.4,986.2 Q400.0,986.6 428.6,982.5 Q457.1,978.4 485.7,972.9 Q514.3,967.5 542.9,964.8 Q571.4,962.1 600.0,964.2 Q628.6,966.2 657.1,971.5 Q685.7,976.8 714.3,981.4 Q742.9,985.9 771.4,986.2 Q800.0,986.6 828.6,982.5 Q857.1,978.4 885.7,972.9 Q914.3,967.5 942.9,964.8 Q971.4,962.1 1000.0,964.2 Q1028.6,966.2 1057.1,971.5 Q1085.7,976.8 1114.3,981.4 Q1142.9,985.9 1171.4,986.2 Q1200.0,986.6 1228.6,982.5" fill="none" stroke="#9A3922" stroke-width="1.4"/><path d="M0.0,1019.1 Q0.0,1019.1 28.6,1015.8 Q57.1,1012.6 85.7,1006.3 Q114.3,1000.1 142.9,995.5 Q171.4,991.0 200.0,991.6 Q228.6,992.2 257.1,997.4 Q285.7,1002.7 314.3,1008.7 Q342.9,1014.7 371.4,1016.9 Q400.0,1019.1 428.6,1015.8 Q457.1,1012.6 485.7,1006.3 Q514.3,1000.1 542.9,995.5 Q571.4,991.0 600.0,991.6 Q628.6,992.2 657.1,997.4 Q685.7,1002.7 714.3,1008.7 Q742.9,1014.7 771.4,1016.9 Q800.0,1019.1 828.6,1015.8 Q857.1,1012.6 885.7,1006.3 Q914.3,1000.1 942.9,995.5 Q971.4,991.0 1000.0,991.6 Q1028.6,992.2 1057.1,997.4 Q1085.7,1002.7 1114.3,1008.7 Q1142.9,1014.7 1171.4,1016.9 Q1200.0,1019.1 1228.6,1015.8" fill="none" stroke="#9A3922" stroke-width="1.4"/></svg>