<svg xmlns="http://www.w3.org/2000/svg" width="1200" height="1000" viewBox="0 0 1200 1000" opacity="0.1"><path d="M0.0,0.1 Q0.0,0.1 28.6,-4.4 Q57.1,-8.9 85.7,-13.8 Q114.3,-18.7 142.9,-20.4 Q171.4,-22.0 200.0,-19.1 Q228.6,-16.2 257.1,-11.0 Q285.7,-5.8 314.3,-2.1 Q342.9,1.5 371.4,0.8 Q400.0,0.1 428.6,-4.4 Q457.1,-8.9 485.7,-13.8 Q514.3,-18.7 542.9,-20.4 Q571.4,-22.0 600.0,-19.1 Q628.6,-16.2 657.1,-11.0 Q685.7,-5.8 714.3,-2.1 Q742.9,1.5 771.4,0.8 Q800.0,0.1 828.6,-4.4 Q857.1,-8.9 885.7,-13.8 Q914.3,-18.7 942.9,-20.4 Q971.4,-22.0 1000.0,-19.1 Q1028.6,-16.2 1057.1,-11.0 Q1085.7,-5.8 1114.3,-2.1 Q1142.9,1.5 1171.4,0.8 Q1200.0,0.1 1228.6,-4.4" fill="none" stroke="#F2EBDB" stroke-width="1.4"/><path d="M0.0,31.3 Q0.0,31.3 28.6,22.7 Q57.1,14.1 85.7,7.7 Q114.3,1.3 142.9,2.0 Q171.4,2.6 200.0,9.8 Q228.6,17.0 257.1,25.3 Q285.7,33.6 314.3,36.8 Q342.9,40.0 371.4,35.7 Q400.0,31.3 428.6,22.7 Q457.1,14.1 485.7,7.7 Q514.3,1.3 542.9,2.0 Q571.4,2.6 600.0,9.8 Q628.6,17.0 657.1,25.3 Q685.7,33.6 714.3,36.8 Q742.9,40.0 771.4,35.7 Q800.0,31.3 828.6,22.7 Q857.1,14.1 885.7,7.7 Q914.3,1.3 942.9,2.0 Q971.4,2.6 1000.0,9.8 Q1028.6,17.0 1057.1,25.3 Q1085.7,33.6 1114.3,36.8 Q1142.9,40.0 1171.4,35.7 Q1200.0,31.3 1228.6,22.7" fill="none" stroke="#F2EBDB" stroke-width="1.4"/><path d="M0.0,45.8 Q0.0,45.8 28.6,52.5 Q57.1,59.2 85.7,60.3 Q114.3,61.3 142.9,55.9 Q171.4,50.5 200.0,42.7 Q228.6,34.9 257.1,30.6 Q285.7,26.3 314.3,28.7 Q342.9,31.1 371.4,38.4 Q400.0,45.8 428.6,52.5 Q457.1,59.2 485.7,60.3 Q514.3,61.3 542.9,55.9 Q571.4,50.5 600.0,42.7 Q628.6,34.9 657.1,30.6 Q685.7,26.3 714.3,28.7 Q742.9,31.1 771.4,38.4 Q800.0,45.8 828.6,52.5 Q857.1,59.2 885.7,60.3 Q914.3,61.3 942.9,55.9 Q971.4,50.5 1000.0,42.7 Q1028.6,34.9 1057.1,30.6 Q1085.7,26.3 1114.3,28.7 Q1142.9,31.1 1171.4,38.4 Q1200.0,45.8 1228.6,52.5" fill="none" stroke="#F2EBDB" stroke-width="1.4"/><path d="M0.0,86.7 Q0.0,86.7 21.4,87.4 Q42.9,88.1 64.3,82.7 Q85.7,77.2 107.1,69.7 Q128.6,62.1 150.0,58.1 Q171.4,54.2 192.9,56.8 Q214.3,59.4 235.7,66.7 Q257.1,73.9 278.6,80.3 Q300.0,86.7 321.4,87.4 Q342.9,88.1 364.3,82.7 Q385.7,77.2 407.1,69.7 Q428.6,62.1 450.0,58.1 Q471.4,54.2 492.9,56.8 Q514.3,59.4 535.7,66.7 Q557.1,73.9 578.6,80.3 Q600.0,86.7 621.4,87.4 Q642.9,88.1 664.3,82.7 Q685.7,77.2 707.1,69.7 Q728.6,62.1 750.0,58.1 Q771.4,54.2 792.9,56.8 Q814.3,59.4 835.7,66.7 Q857.1,73.9 878.6,80.3 Q900.0,86.7 921.4,87.4 Q942.9,88.1 964.3,82.7 Q985.7,77.2 1007.1,69.7 Q1028.6,62.1 1050.0,58.1 Q1071.4,54.2 1092.9,56.8 Q1114.3,59.4 1135.7,66.7 Q1157.1,73.9 1178.6,80.3" fill="none" stroke="#F2EBDB" stroke-width="1.4"/><path d="M0.0,82.5 Q0.0,82.5 28.6,78.9 Q57.1,75.2 85.7,78.1 Q114.3,81.1 142.9,88.3 Q171.4,95.6 200.0,101.8 Q228.6,108.0 257.1,108.4 Q285.7,108.8 314.3,103.1 Q342.9,97.5 371.4,90.0 Q400.0,82.5 428.6,78.9 Q457.1,75.2 485.7,78.1 Q514.3,81.1 542.9,88.3 Q571.4,95.6 600.0,101.8 Q628.6,108.0 657.1,108.4 Q685.7,108.8 714.3,103.1 Q742.9,97.5 771.4,90.0 Q800.0,82.5 828.6,78.9 Q857.1,75.2 885.7,78.1 Q914.3,81.1 942.9,88.3 Q971.4,95.6 1000.0,101.8 Q1028.6,108.0 1057.1,108.4 Q1085.7,108.8 1114.3,103.1 Q1142.9,97.5 1171.4,90.0 Q1200.0,82.5 1228.6,78.9" fill="none" stroke="#F2EBDB" stroke-width="1.4"/><path d="M0.0,136.1 Q0.0,136.1 28.6,137.1 Q57.1,138.1 85.7,132.7 Q114.3,127.3 142.9,119.5 Q171.4,111.7 200.0,107.4 Q228.6,103.1 257.1,105.5 Q285.7,108.0 314.3,115.3 Q342.9,122.6 371.4,129.4 Q400.0,136.1 428.6,137.1 Q457.1,138.1 485.7,132.7 Q514.3,127.3 542.9,119.5 Q571.4,111.7 600.0,107.4 Q628.6,103.1 657.1,105.5 Q685.7,108.0 714.3,115.3 Q742.9,122.6 771.4,129.4 Q800.0,136.1 828.6,137.1 Q857.1,138.1 885.7,132.7 Q914.3,127.3 942.9,119.5 Q971.4,111.7 1000.0,107.4 Q1028.6,103.1 1057.1,105.5 Q1085.7,108.0 1114.3,115.3 Q1142.9,122.6 1171.4,129.4 Q1200.0,136.1 1228.6,137.1" fill="none" stroke="#F2EBDB" stroke-width="1.4"/><path d="M0.0,143.3 Q0.0,143.3 28.6,150.6 Q57.1,157.8 85.7,160.7 Q114.3,163.6 142.9,160.0 Q171.4,156.5 200.0,149.1 Q228.6,141.7 257.1,136.0 Q285.7,130.4 314.3,130.8 Q342.9,131.1 371.4,137.2 Q400.0,143.3 428.6,150.6 Q457.1,157.8 485.7,160.7 Q514.3,163.6 542.9,160.0 Q571.4,156.5 600.0,149.1 Q628.6,141.7 657.1,136.0 Q685.7,130.4 714.3,130.8 Q742.9,131.1 771.4,137.2 Q800.0,143.3 828.6,150.6 Q857.1,157.8 885.7,160.7 Q914.3,163.6 942.9,160.0 Q971.4,156.5 1000.0,149.1 Q1028.6,141.7 1057.1,136.0 Q1085.7,130.4 1114.3,130.8 Q1142.9,131.1 1171.4,137.2 Q1200.0,143.3 1228.6,150.6" fill="none" stroke="#F2EBDB" stroke-width="1.4"/><path d="M0.0,182.3 Q0.0,182.3 28.6,181.3 Q57.1,180.3 85.7,176.5 Q114.3,172.7 142.9,169.0 Q171.4,165.2 200.0,164.4 Q228.6,163.6 257.1,166.2 Q285.7,168.9 314.3,173.1 Q342.9,177.3 371.4,179.8 Q400.0,182.3 428.6,181.3 Q457.1,180.3 485.7,176.5 Q514.3,172.7 542.9,169.0 Q571.4,165.2 600.0,164.4 Q628.6,163.6 657.1,166.2 Q685.7,168.9 714.3,173.1 Q742.9,177.3 771.4,179.8 Q800.0,182.3 828.6,181.3 Q857.1,180.3 885.7,176.5 Q914.3,172.7 942.9,169.0 Q971.4,165.2 1000.0,164.4 Q1028.6,163.6 1057.1,166.2 Q1085.7,168.9 1114.3,173.1 Q1142.9,177.3 1171.4,179.8 Q1200.0,182.3 1228.6,181.3" fill="none" stroke="#F2EBDB" stroke-width="1.4"/><path d="M0.0,198.0 Q0.0,198.0 42.9,190.5 Q85.7,183.0 128.6,180.1 Q171.4,177.2 214.3,181.0 Q257.1,184.8 300.0,192.5 Q342.9,200.2 385.7,206.0 Q428.6,211.7 471.4,211.2 Q514.3,210.7 557.1,204.4 Q600.0,198.0 642.9,190.5 Q685.7,183.0 728.6,180.1 Q771.4,177.2 814.3,181.0 Q857.1,184.8 900.0,192.5 Q942.9,200.2 985.7,206.0 Q1028.6,211.7 1071.4,211.2 Q1114.3,210.7 1157.1,204.4 Q1200.0,198.0 1242.9,190.5" fill="none" stroke="#F2EBDB" stroke-width="1.4"/><path d="M0.0,231.3 Q0.0,231.3 42.9,235.6 Q85.7,239.9 128.6,237.2 Q171.4,234.4 214.3,226.6 Q257.1,218.8 300.0,211.9 Q342.9,205.0 385.7,204.2 Q428.6,203.3 471.4,209.2 Q514.3,215.1 557.1,223.2 Q600.0,231.3 642.9,235.6 Q685.7,239.9 728.6,237.2 Q771.4,234.4 814.3,226.6 Q857.1,218.8 900.0,211.9 Q942.9,205.0 985.7,204.2 Q1028.6,203.3 1071.4,209.2 Q1114.3,215.1 1157.1,223.2 Q1200.0,231.3 1242.9,235.6" fill="none" stroke="#F2EBDB" stroke-width="1.4"/><path d="M0.0,259.0 Q0.0,259.0 42.9,253.5 Q85.7,248.0 128.6,243.6 Q171.4,239.2 214.3,239.2 Q257.1,239.3 300.0,243.7 Q342.9,248.1 385.7,253.6 Q428.6,259.1 471.4,261.5 Q514.3,263.9 557.1,261.4 Q600.0,259.0 642.9,253.5 Q685.7,248.0 728.6,243.6 Q771.4,239.2 814.3,239.2 Q857.1,239.3 900.0,243.7 Q942.9,248.1 985.7,253.6 Q1028.6,259.1 1071.4,261.5 Q1114.3,263.9 1157.1,261.4 Q1200.0,259.0 1242.9,253.5" fill="none" stroke="#F2EBDB" stroke-width="1.4"/><path d="M0.0,266.2 Q0.0,266.2 42.9,262.3 Q85.7,258.3 128.6,260.5 Q171.4,262.7 214.3,269.3 Q257.1,276.0 300.0,282.1 Q342.9,288.2 385.7,289.1 Q428.6,290.1 471.4,285.2 Q514.3,280.3 557.1,273.3 Q600.0,266.2 642.9,262.3 Q685.7,258.3 728.6,260.5 Q771.4,262.7 814.3,269.3 Q857.1,276.0 900.0,282.1 Q942.9,288.2 985.7,289.1 Q1028.6,290.1 1071.4,285.2 Q1114.3,280.3 1157.1,273.3 Q1200.0,266.2 1242.9,262.3" fill="none" stroke="#F2EBDB" stroke-width="1.4"/><path d="M0.0,278.7 Q0.0,278.7 21.4,283.6 Q42.9,288.5 64.3,298.1 Q85.7,307.7 107.1,314.7 Q128.6,321.8 150.0,320.9 Q171.4,320.1 192.9,312.0 Q214.3,303.9 235.7,294.7 Q257.1,285.5 278.6,282.1 Q300.0,278.7 321.4,283.6 Q342.9,288.5 364.3,298.1 Q385.7,307.7 407.1,314.7 Q428.6,321.8 450.0,320.9 Q471.4,320.1 492.9,312.0 Q514.3,303.9 535.7,294.7 Q557.1,285.5 578.6,282.1 Q600.0,278.7 621.4,283.6 Q642.9,288.5 664.3,298.1 Q685.7,307.7 707.1,314.7 Q728.6,321.8 750.0,320.9 Q771.4,320.1 792.9,312.0 Q814.3,303.9 835.7,294.7 Q857.1,285.5 878.6,282.1 Q900.0,278.7 921.4,283.6 Q942.9,288.5 964.3,298.1 Q985.7,307.7 1007.1,314.7 Q1028.6,321.8 1050.0,320.9 Q1071.4,320.1 1092.9,312.0 Q1114.3,303.9 1135.7,294.7 Q1157.1,285.5 1178.6,282.1" fill="none" stroke="#F2EBDB" stroke-width="1.4"/><path d="M0.0,311.2 Q0.0,311.2 28.6,313.5 Q57.1,315.7 85.7,323.2 Q114.3,330.6 142.9,337.7 Q171.4,344.7 200.0,346.0 Q228.6,347.4 257.1,342.0 Q285.7,336.6 314.3,328.5 Q342.9,320.5 371.4,315.8 Q400.0,311.2 428.6,313.5 Q457.1,315.7 485.7,323.2 Q514.3,330.6 542.9,337.7 Q571.4,344.7 600.0,346.0 Q628.6,347.4 657.1,342.0 Q685.7,336.6 714.3,328.5 Q742.9,320.5 771.4,315.8 Q800.0,311.2 828.6,313.5 Q857.1,315.7 885.7,323.2 Q914.3,330.6 942.9,337.7 Q971.4,344.7 1000.0,346.0 Q1028.6,347.4 1057.1,342.0 Q1085.7,336.6 1114.3,328.5 Q1142.9,320.5 1171.4,315.8 Q1200.0,311.2 1228.6,313.5" fill="none" stroke="#F2EBDB" stroke-width="1.4"/><path d="M0.0,348.7 Q0.0,348.7 21.4,350.0 Q42.9,351.2 64.3,354.8 Q85.7,358.3 107.1,361.4 Q128.6,364.6 150.0,365.0 Q171.4,365.3 192.9,362.7 Q214.3,360.0 235.7,356.3 Q257.1,352.6 278.6,350.7 Q300.0,348.7 321.4,350.0 Q342.9,351.2 364.3,354.8 Q385.7,358.3 407.1,361.4 Q428.6,364.6 450.0,365.0 Q471.4,365.3 492.9,362.7 Q514.3,360.0 535.7,356.3 Q557.1,352.6 578.6,350.7 Q600.0,348.7 621.4,350.0 Q642.9,351.2 664.3,354.8 Q685.7,358.3 707.1,361.4 Q728.6,364.6 750.0,365.0 Q771.4,365.3 792.9,362.7 Q814.3,360.0 835.7,356.3 Q857.1,352.6 878.6,350.7 Q900.0,348.7 921.4,350.0 Q942.9,351.2 964.3,354.8 Q985.7,358.3 1007.1,361.4 Q1028.6,364.6 1050.0,365.0 Q1071.4,365.3 1092.9,362.7 Q1114.3,360.0 1135.7,356.3 Q1157.1,352.6 1178.6,350.7" fill="none" stroke="#F2EBDB" stroke-width="1.4"/><path d="M0.0,372.0 Q0.0,372.0 42.9,377.9 Q85.7,383.7 128.6,390.8 Q171.4,397.9 214.3,400.9 Q257.1,403.9 300.0,400.5 Q342.9,397.1 385.7,390.0 Q428.6,382.8 471.4,377.2 Q514.3,371.6 557.1,371.8 Q600.0,372.0 642.9,377.9 Q685.7,383.7 728.6,390.8 Q771.4,397.9 814.3,400.9 Q857.1,403.9 900.0,400.5 Q942.9,397.1 985.7,390.0 Q1028.6,382.8 1071.4,377.2 Q1114.3,371.6 1157.1,371.8 Q1200.0,372.0 1242.9,377.9" fill="none" stroke="#F2EBDB" stroke-width="1.4"/><path d="M0.0,425.7 Q0.0,425.7 28.6,431.3 Q57.1,436.8 85.7,433.8 Q114.3,430.7 142.9,421.4 Q171.4,412.0 200.0,403.4 Q228.6,394.9 257.1,393.5 Q285.7,392.1 314.3,399.0 Q342.9,405.8 371.4,415.8 Q400.0,425.7 428.6,431.3 Q457.1,436.8 485.7,433.8 Q514.3,430.7 542.9,421.4 Q571.4,412.0 600.0,403.4 Q628.6,394.9 657.1,393.5 Q685.7,392.1 714.3,399.0 Q742.9,405.8 771.4,415.8 Q800.0,425.7 828.6,431.3 Q857.1,436.8 885.7,433.8 Q914.3,430.7 942.9,421.4 Q971.4,412.0 1000.0,403.4 Q1028.6,394.9 1057.1,393.5 Q1085.7,392.1 1114.3,399.0 Q1142.9,405.8 1171.4,415.8 Q1200.0,425.7 1228.6,431.3" fill="none" stroke="#F2EBDB" stroke-width="1.4"/><path d="M0.0,445.6 Q0.0,445.6 42.9,439.1 Q85.7,432.6 128.6,426.8 Q171.4,421.1 214.3,420.4 Q257.1,419.7 300.0,424.5 Q342.9,429.4 385.7,436.2 Q428.6,443.0 471.4,446.6 Q514.3,450.2 557.1,447.9 Q600.0,445.6 642.9,439.1 Q685.7,432.6 728.6,426.8 Q771.4,421.1 814.3,420.4 Q857.1,419.7 900.0,424.5 Q942.9,429.4 985.7,436.2 Q1028.6,443.0 1071.4,446.6 Q1114.3,450.2 1157.1,447.9 Q1200.0,445.6 1242.9,439.1" fill="none" stroke="#F2EBDB" stroke-width="1.4"/><path d="M0.0,450.7 Q0.0,450.7 42.9,448.8 Q85.7,447.0 128.6,450.0 Q171.4,453.1 214.3,458.7 Q257.1,464.3 300.0,468.3 Q342.9,472.2 385.7,471.6 Q428.6,470.9 471.4,466.1 Q514.3,461.3 557.1,456.0 Q600.0,450.7 642.9,448.8 Q685.7,447.0 728.6,450.0 Q771.4,453.1 814.3,458.7 Q857.1,464.3 900.0,468.3 Q942.9,472.2 985.7,471.6 Q1028.6,470.9 1071.4,466.1 Q1114.3,461.3 1157.1,456.0 Q1200.0,450.7 1242.9,448.8" fill="none" stroke="#F2EBDB" stroke-width="1.4"/><path d="M0.0,493.7 Q0.0,493.7 42.9,484.8 Q85.7,475.9 128.6,471.6 Q171.4,467.3 214.3,470.9 Q257.1,474.4 300.0,483.1 Q342.9,491.7 385.7,499.1 Q428.6,506.4 471.4,506.8 Q514.3,507.2 557.1,500.4 Q600.0,493.7 642.9,484.8 Q685.7,475.9 728.6,471.6 Q771.4,467.3 814.3,470.9 Q857.1,474.4 900.0,483.1 Q942.9,491.7 985.7,499.1 Q1028.6,506.4 1071.4,506.8 Q1114.3,507.2 1157.1,500.4 Q1200.0,493.7 1242.9,484.8" fill="none" stroke="#F2EBDB" stroke-width="1.4"/><path d="M0.0,491.2 Q0.0,491.2 42.9,490.1 Q85.7,488.9 128.6,495.3 Q171.4,501.7 214.3,510.9 Q257.1,520.0 300.0,524.9 Q342.9,529.9 385.7,526.9 Q428.6,524.0 471.4,515.4 Q514.3,506.8 557.1,499.0 Q600.0,491.2 642.9,490.1 Q685.7,488.9 728.6,495.3 Q771.4,501.7 814.3,510.9 Q857.1,520.0 900.0,524.9 Q942.9,529.9 985.7,526.9 Q1028.6,524.0 1071.4,515.4 Q1114.3,506.8 1157.1,499.0 Q1200.0,491.2 1242.9,490.1" fill="none" stroke="#F2EBDB" stroke-width="1.4"/><path d="M0.0,517.7 Q0.0,517.7 28.6,521.8 Q57.1,525.9 85.7,531.4 Q114.3,537.0 142.9,539.8 Q171.4,542.6 200.0,540.6 Q228.6,538.6 257.1,533.2 Q285.7,527.9 314.3,523.2 Q342.9,518.6 371.4,518.1 Q400.0,517.7 428.6,521.8 Q457.1,525.9 485.7,531.4 Q514.3,537.0 542.9,539.8 Q571.4,542.6 600.0,540.6 Q628.6,538.6 657.1,533.2 Q685.7,527.9 714.3,523.2 Q742.9,518.6 771.4,518.1 Q800.0,517.7 828.6,521.8 Q857.1,525.9 885.7,531.4 Q914.3,537.0 942.9,539.8 Q971.4,542.6 1000.0,540.6 Q1028.6,538.6 1057.1,533.2 Q1085.7,527.9 1114.3,523.2 Q1142.9,518.6 1171.4,518.1 Q1200.0,517.7 1228.6,521.8" fill="none" stroke="#F2EBDB" stroke-width="1.4"/><path d="M0.0,577.3 Q0.0,577.3 28.6,574.9 Q57.1,572.4 85.7,565.2 Q114.3,558.1 142.9,551.6 Q171.4,545.1 200.0,544.2 Q228.6,543.3 257.1,548.6 Q285.7,553.9 314.3,561.5 Q342.9,569.1 371.4,573.2 Q400.0,577.3 428.6,574.9 Q457.1,572.4 485.7,565.2 Q514.3,558.1 542.9,551.6 Q571.4,545.1 600.0,544.2 Q628.6,543.3 657.1,548.6 Q685.7,553.9 714.3,561.5 Q742.9,569.1 771.4,573.2 Q800.0,577.3 828.6,574.9 Q857.1,572.4 885.7,565.2 Q914.3,558.1 942.9,551.6 Q971.4,545.1 1000.0,544.2 Q1028.6,543.3 1057.1,548.6 Q1085.7,553.9 1114.3,561.5 Q1142.9,569.1 1171.4,573.2 Q1200.0,577.3 1228.6,574.9" fill="none" stroke="#F2EBDB" stroke-width="1.4"/><path d="M0.0,597.1 Q0.0,597.1 21.4,602.4 Q42.9,607.7 64.3,605.4 Q85.7,603.2 107.1,595.1 Q128.6,587.0 150.0,579.2 Q171.4,571.3 192.9,569.7 Q214.3,568.0 235.7,573.7 Q257.1,579.5 278.6,588.3 Q300.0,597.1 321.4,602.4 Q342.9,607.7 364.3,605.4 Q385.7,603.2 407.1,595.1 Q428.6,587.0 450.0,579.2 Q471.4,571.3 492.9,569.7 Q514.3,568.0 535.7,573.7 Q557.1,579.5 578.6,588.3 Q600.0,597.1 621.4,602.4 Q642.9,607.7 664.3,605.4 Q685.7,603.2 707.1,595.1 Q728.6,587.0 750.0,579.2 Q771.4,571.3 792.9,569.7 Q814.3,568.0 835.7,573.7 Q857.1,579.5 878.6,588.3 Q900.0,597.1 921.4,602.4 Q942.9,607.7 964.3,605.4 Q985.7,603.2 1007.1,595.1 Q1028.6,587.0 1050.0,579.2 Q1071.4,571.3 1092.9,569.7 Q1114.3,568.0 1135.7,573.7 Q1157.1,579.5 1178.6,588.3" fill="none" stroke="#F2EBDB" stroke-width="1.4"/><path d="M0.0,609.5 Q0.0,609.5 42.9,607.3 Q85.7,605.1 128.6,608.0 Q171.4,610.8 214.3,616.6 Q257.1,622.4 300.0,626.8 Q342.9,631.1 385.7,630.8 Q428.6,630.4 471.4,625.6 Q514.3,620.8 557.1,615.2 Q600.0,609.5 642.9,607.3 Q685.7,605.1 728.6,608.0 Q771.4,610.8 814.3,616.6 Q857.1,622.4 900.0,626.8 Q942.9,631.1 985.7,630.8 Q1028.6,630.4 1071.4,625.6 Q1114.3,620.8 1157.1,615.2 Q1200.0,609.5 1242.9,607.3" fill="none" stroke="#F2EBDB" stroke-width="1.4"/><path d="M0.0,657.9 Q0.0,657.9 28.6,653.2 Q57.1,648.4 85.7,642.9 Q114.3,637.4 142.9,635.2 Q171.4,633.0 200.0,635.8 Q228.6,638.7 257.1,644.4 Q285.7,650.1 314.3,654.4 Q342.9,658.7 371.4,658.3 Q400.0,657.9 428.6,653.2 Q457.1,648.4 485.7,642.9 Q514.3,637.4 542.9,635.2 Q571.4,633.0 600.0,635.8 Q628.6,638.7 657.1,644.4 Q685.7,650.1 714.3,654.4 Q742.9,658.7 771.4,658.3 Q800.0,657.9 828.6,653.2 Q857.1,648.4 885.7,642.9 Q914.3,637.4 942.9,635.2 Q971.4,633.0 1000.0,635.8 Q1028.6,638.7 1057.1,644.4 Q1085.7,650.1 1114.3,654.4 Q1142.9,658.7 1171.4,658.3 Q1200.0,657.9 1228.6,653.2" fill="none" stroke="#F2EBDB" stroke-width="1.4"/><path d="M0.0,675.9 Q0.0,675.9 28.6,684.1 Q57.1,692.4 85.7,693.8 Q114.3,695.2 142.9,688.6 Q171.4,682.1 200.0,672.6 Q228.6,663.1 257.1,657.7 Q285.7,652.3 314.3,655.2 Q342.9,658.0 371.4,667.0 Q400.0,675.9 428.6,684.1 Q457.1,692.4 485.7,693.8 Q514.3,695.2 542.9,688.6 Q571.4,682.1 600.0,672.6 Q628.6,663.1 657.1,657.7 Q685.7,652.3 714.3,655.2 Q742.9,658.0 771.4,667.0 Q800.0,675.9 828.6,684.1 Q857.1,692.4 885.7,693.8 Q914.3,695.2 942.9,688.6 Q971.4,682.1 1000.0,672.6 Q1028.6,663.1 1057.1,657.7 Q1085.7,652.3 1114.3,655.2 Q1142.9,658.0 1171.4,667.0 Q1200.0,675.9 1228.6,684.1" fill="none" stroke="#F2EBDB" stroke-width="1.4"/><path d="M0.0,679.0 Q0.0,679.0 42.9,679.6 Q85.7,680.2 128.6,686.3 Q171.4,692.5 214.3,699.5 Q257.1,706.5 300.0,709.2 Q342.9,711.8 385.7,708.1 Q428.6,704.3 471.4,697.0 Q514.3,689.7 557.1,684.3 Q600.0,679.0 642.9,679.6 Q685.7,680.2 728.6,686.3 Q771.4,692.5 814.3,699.5 Q857.1,706.5 900.0,709.2 Q942.9,711.8 985.7,708.1 Q1028.6,704.3 1071.4,697.0 Q1114.3,689.7 1157.1,684.3 Q1200.0,679.0 1242.9,679.6" fill="none" stroke="#F2EBDB" stroke-width="1.4"/><path d="M0.0,725.3 Q0.0,725.3 28.6,720.9 Q57.1,716.5 85.7,714.5 Q114.3,712.6 142.9,714.5 Q171.4,716.5 200.0,720.9 Q228.6,725.3 257.1,728.8 Q285.7,732.4 314.3,732.4 Q342.9,732.4 371.4,728.8 Q400.0,725.3 428.6,720.9 Q457.1,716.5 485.7,714.5 Q514.3,712.6 542.9,714.5 Q571.4,716.5 600.0,720.9 Q628.6,725.3 657.1,728.8 Q685.7,732.4 714.3,732.4 Q742.9,732.4 771.4,728.8 Q800.0,725.3 828.6,720.9 Q857.1,716.5 885.7,714.5 Q914.3,712.6 942.9,714.5 Q971.4,716.5 1000.0,720.9 Q1028.6,725.3 1057.1,728.8 Q1085.7,732.4 1114.3,732.4 Q1142.9,732.4 1171.4,728.8 Q1200.0,725.3 1228.6,720.9" fill="none" stroke="#F2EBDB" stroke-width="1.4"/><path d="M0.0,764.3 Q0.0,764.3 28.6,758.8 Q57.1,753.4 85.7,746.1 Q114.3,738.8 142.9,735.3 Q171.4,731.7 200.0,734.4 Q228.6,737.2 257.1,744.3 Q285.7,751.3 314.3,757.3 Q342.9,763.3 371.4,763.8 Q400.0,764.3 428.6,758.8 Q457.1,753.4 485.7,746.1 Q514.3,738.8 542.9,735.3 Q571.4,731.7 600.0,734.4 Q628.6,737.2 657.1,744.3 Q685.7,751.3 714.3,757.3 Q742.9,763.3 771.4,763.8 Q800.0,764.3 828.6,758.8 Q857.1,753.4 885.7,746.1 Q914.3,738.8 942.9,735.3 Q971.4,731.7 1000.0,734.4 Q1028.6,737.2 1057.1,744.3 Q1085.7,751.3 1114.3,757.3 Q1142.9,763.3 1171.4,763.8 Q1200.0,764.3 1228.6,758.8" fill="none" stroke="#F2EBDB" stroke-width="1.4"/><path d="M0.0,774.8 Q0.0,774.8 28.6,766.1 Q57.1,757.4 85.7,753.3 Q114.3,749.2 142.9,752.8 Q171.4,756.3 200.0,764.9 Q228.6,773.4 257.1,780.6 Q285.7,787.7 314.3,788.0 Q342.9,788.3 371.4,781.6 Q400.0,774.8 428.6,766.1 Q457.1,757.4 485.7,753.3 Q514.3,749.2 542.9,752.8 Q571.4,756.3 600.0,764.9 Q628.6,773.4 657.1,780.6 Q685.7,787.7 714.3,788.0 Q742.9,788.3 771.4,781.6 Q800.0,774.8 828.6,766.1 Q857.1,757.4 885.7,753.3 Q914.3,749.2 942.9,752.8 Q971.4,756.3 1000.0,764.9 Q1028.6,773.4 1057.1,780.6 Q1085.7,787.7 1114.3,788.0 Q1142.9,788.3 1171.4,781.6 Q1200.0,774.8 1228.6,766.1" fill="none" stroke="#F2EBDB" stroke-width="1.4"/><path d="M0.0,798.7 Q0.0,798.7 21.4,805.7 Q42.9,812.6 64.3,814.6 Q85.7,816.6 107.1,812.1 Q128.6,807.7 150.0,800.1 Q171.4,792.5 192.9,787.5 Q214.3,782.6 235.7,784.0 Q257.1,785.3 278.6,792.0 Q300.0,798.7 321.4,805.7 Q342.9,812.6 364.3,814.6 Q385.7,816.6 407.1,812.1 Q428.6,807.7 450.0,800.1 Q471.4,792.5 492.9,787.5 Q514.3,782.6 535.7,784.0 Q557.1,785.3 578.6,792.0 Q600.0,798.7 621.4,805.7 Q642.9,812.6 664.3,814.6 Q685.7,816.6 707.1,812.1 Q728.6,807.7 750.0,800.1 Q771.4,792.5 792.9,787.5 Q814.3,782.6 835.7,784.0 Q857.1,785.3 878.6,792.0 Q900.0,798.7 921.4,805.7 Q942.9,812.6 964.3,814.6 Q985.7,816.6 1007.1,812.1 Q1028.6,807.7 1050.0,800.1 Q1071.4,792.5 1092.9,787.5 Q1114.3,782.6 1135.7,784.0 Q1157.1,785.3 1178.6,792.0" fill="none" stroke="#F2EBDB" stroke-width="1.4"/><path d="M0.0,832.4 Q0.0,832.4 28.6,837.3 Q57.1,842.2 85.7,840.3 Q114.3,838.3 142.9,831.0 Q171.4,823.7 200.0,816.5 Q228.6,809.4 257.1,807.7 Q285.7,806.1 314.3,811.2 Q342.9,816.4 371.4,824.4 Q400.0,832.4 428.6,837.3 Q457.1,842.2 485.7,840.3 Q514.3,838.3 542.9,831.0 Q571.4,823.7 600.0,816.5 Q628.6,809.4 657.1,807.7 Q685.7,806.1 714.3,811.2 Q742.9,816.4 771.4,824.4 Q800.0,832.4 828.6,837.3 Q857.1,842.2 885.7,840.3 Q914.3,838.3 942.9,831.0 Q971.4,823.7 1000.0,816.5 Q1028.6,809.4 1057.1,807.7 Q1085.7,806.1 1114.3,811.2 Q1142.9,816.4 1171.4,824.4 Q1200.0,832.4 1228.6,837.3" fill="none" stroke="#F2EBDB" stroke-width="1.4"/><path d="M0.0,838.6 Q0.0,838.6 28.6,848.2 Q57.1,857.8 85.7,862.6 Q114.3,867.5 142.9,863.9 Q171.4,860.4 200.0,851.1 Q228.6,841.8 257.1,833.8 Q285.7,825.8 314.3,825.1 Q342.9,824.3 371.4,831.4 Q400.0,838.6 428.6,848.2 Q457.1,857.8 485.7,862.6 Q514.3,867.5 542.9,863.9 Q571.4,860.4 600.0,851.1 Q628.6,841.8 657.1,833.8 Q685.7,825.8 714.3,825.1 Q742.9,824.3 771.4,831.4 Q800.0,838.6 828.6,848.2 Q857.1,857.8 885.7,862.6 Q914.3,867.5 942.9,863.9 Q971.4,860.4 1000.0,851.1 Q1028.6,841.8 1057.1,833.8 Q1085.7,825.8 1114.3,825.1 Q1142.9,824.3 1171.4,831.4 Q1200.0,838.6 1228.6,848.2" fill="none" stroke="#F2EBDB" stroke-width="1.4"/><path d="M0.0,853.5 Q0.0,853.5 28.6,862.0 Q57.1,870.4 85.7,877.5 Q114.3,884.6 142.9,884.9 Q171.4,885.3 200.0,878.7 Q228.6,872.0 257.1,863.4 Q285.7,854.8 314.3,850.7 Q342.9,846.6 371.4,850.0 Q400.0,853.5 428.6,862.0 Q457.1,870.4 485.7,877.5 Q514.3,884.6 542.9,884.9 Q571.4,885.3 600.0,878.7 Q628.6,872.0 657.1,863.4 Q685.7,854.8 714.3,850.7 Q742.9,846.6 771.4,850.0 Q800.0,853.5 828.6,862.0 Q857.1,870.4 885.7,877.5 Q914.3,884.6 942.9,884.9 Q971.4,885.3 1000.0,878.7 Q1028.6,872.0 1057.1,863.4 Q1085.7,854.8 1114.3,850.7 Q1142.9,846.6 1171.4,850.0 Q1200.0,853.5 1228.6,862.0" fill="none" stroke="#F2EBDB" stroke-width="1.4"/><path d="M0.0,901.5 Q0.0,901.5 21.4,897.2 Q42.9,892.9 64.3,889.4 Q85.7,886.0 107.1,886.0 Q128.6,886.0 150.0,889.5 Q171.4,893.0 192.9,897.3 Q214.3,901.6 235.7,903.5 Q257.1,905.4 278.6,903.5 Q300.0,901.5 321.4,897.2 Q342.9,892.9 364.3,889.4 Q385.7,886.0 407.1,886.0 Q428.6,886.0 450.0,889.5 Q471.4,893.0 492.9,897.3 Q514.3,901.6 535.7,903.5 Q557.1,905.4 578.6,903.5 Q600.0,901.5 621.4,897.2 Q642.9,892.9 664.3,889.4 Q685.7,886.0 707.1,886.0 Q728.6,886.0 750.0,889.5 Q771.4,893.0 792.9,897.3 Q814.3,901.6 835.7,903.5 Q857.1,905.4 878.6,903.5 Q900.0,901.5 921.4,897.2 Q942.9,892.9 964.3,889.4 Q985.7,886.0 1007.1,886.0 Q1028.6,886.0 1050.0,889.5 Q1071.4,893.0 1092.9,897.3 Q1114.3,901.6 1135.7,903.5 Q1157.1,905.4 1178.6,903.5" fill="none" stroke="#F2EBDB" stroke-width="1.4"/><path d="M0.0,929.5 Q0.0,929.5 21.4,920.0 Q42.9,910.6 64.3,903.6 Q85.7,896.6 107.1,897.3 Q128.6,898.1 150.0,906.0 Q171.4,913.9 192.9,923.0 Q214.3,932.1 235.7,935.6 Q257.1,939.1 278.6,934.3 Q300.0,929.5 321.4,920.0 Q342.9,910.6 364.3,903.6 Q385.7,896.6 407.1,897.3 Q428.6,898.1 450.0,906.0 Q471.4,913.9 492.9,923.0 Q514.3,932.1 535.7,935.6 Q557.1,939.1 578.6,934.3 Q600.0,929.5 621.4,920.0 Q642.9,910.6 664.3,903.6 Q685.7,896.6 707.1,897.3 Q728.6,898.1 750.0,906.0 Q771.4,913.9 792.9,923.0 Q814.3,932.1 835.7,935.6 Q857.1,939.1 878.6,934.3 Q900.0,929.5 921.4,920.0 Q942.9,910.6 964.3,903.6 Q985.7,896.6 1007.1,897.3 Q1028.6,898.1 1050.0,906.0 Q1071.4,913.9 1092.9,923.0 Q1114.3,932.1 1135.7,935.6 Q1157.1,939.1 1178.6,934.3" fill="none" stroke="#F2EBDB" stroke-width="1.4"/><path d="M0.0,964.1 Q0.0,964.1 21.4,957.6 Q42.9,951.0 64.3,942.4 Q85.7,933.9 107.1,929.9 Q128.6,925.8 150.0,929.3 Q171.4,932.8 192.9,941.2 Q214.3,949.6 235.7,956.6 Q257.1,963.5 278.6,963.8 Q300.0,964.1 321.4,957.6 Q342.9,951.0 364.3,942.4 Q385.7,933.9 407.1,929.9 Q428.6,925.8 450.0,929.3 Q471.4,932.8 492.9,941.2 Q514.3,949.6 535.7,956.6 Q557.1,963.5 578.6,963.8 Q600.0,964.1 621.4,957.6 Q642.9,951.0 664.3,942.4 Q685.7,933.9 707.1,929.9 Q728.6,925.8 750.0,929.3 Q771.4,932.8 792.9,941.2 Q814.3,949.6 835.7,956.6 Q857.1,963.5 878.6,963.8 Q900.0,964.1 921.4,957.6 Q942.9,951.0 964.3,942.4 Q985.7,933.9 1007.1,929.9 Q1028.6,925.8 1050.0,929.3 Q1071.4,932.8 1092.9,941.2 Q1114.3,949.6 1135.7,956.6 Q1157.1,963.5 1178.6,963.8" fill="none" stroke="#F2EBDB" stroke-width="1.4"/><path d="M0.0,966.1 Q0.0,966.1 28.6,970.4 Q57.1,974.6 85.7,979.3 Q114.3,984.0 142.9,985.7 Q171.4,987.4 200.0,984.7 Q228.6,982.1 257.1,977.1 Q285.7,972.2 314.3,968.6 Q342.9,965.1 371.4,965.6 Q400.0,966.1 428.6,970.4 Q457.1,974.6 485.7,979.3 Q514.3,984.0 542.9,985.7 Q571.4,987.4 600.0,984.7 Q628.6,982.1 657.1,977.1 Q685.7,972.2 714.3,968.6 Q742.9,965.1 771.4,965.6 Q800.0,966.1 828.6,970.4 Q857.1,974.6 885.7,979.3 Q914.3,984.0 942.9,985.7 Q971.4,987.4 1000.0,984.7 Q1028.6,982.1 1057.1,977.1 Q1085.7,972.2 1114.3,968.6 Q1142.9,965.1 1171.4,965.6 Q1200.0,966.1 1228.6,970.4" fill="none" stroke="#F2EBDB" stroke-width="1.4"/><path d="M0.0,986.5 Q0.0,986.5 42.9,994.5 Q85.7,1002.5 128.6,1008.5 Q171.4,1014.6 214.3,1014.2 Q257.1,1013.8 300.0,1007.2 Q342.9,1000.6 385.7,992.8 Q428.6,984.9 471.4,981.8 Q514.3,978.7 557.1,982.6 Q600.0,986.5 642.9,994.5 Q685.7,1002.5 728.6,1008.5 Q771.4,1014.6 814.3,1014.2 Q857.1,1013.8 900.0,1007.2 Q942.9,1000.6 985.7,992.8 Q1028.6,984.9 1071.4,981.8 Q1114.3,978.7 1157.1,982.6 Q1200.0,986.5 1242.9,994.5" fill="none" stroke="#F2EBDB" stroke-width="1.4"/></svg>